0
SECTION
2
HEADER
9
$INSUNITS
70
4
0
ENDSEC
0
SECTION
2
TABLES
0
TABLE
2
LTYPE
0
LTYPE
72
65
70
64
2
CONTINUOUS
3
______
73
0
40
0
0
ENDTAB
0
TABLE
2
LAYER
0
ENDTAB
0
ENDSEC
0
SECTION
2
ENTITIES
0
LINE
8
0
10
49.2177666
20
1.652037
11
63.2092382
21
1.163444
0
LINE
8
0
10
48.7291736
20
-12.3394346
11
62.7206452
21
-12.8280276
0
LINE
8
0
10
49.2177666
20
1.652037
11
48.7291736
21
-12.3394346
0
LINE
8
0
10
63.2092382
20
1.163444
11
62.7206452
21
-12.8280276
0
LINE
8
0
10
48.5895757
20
-16.3369979
11
62.5810473
21
-16.8255909
0
LINE
8
0
10
48.1009827
20
-30.3284695
11
62.0924543
21
-30.8170625
0
LINE
8
0
10
48.5895757
20
-16.3369979
11
48.1009827
21
-30.3284695
0
LINE
8
0
10
62.5810473
20
-16.8255909
11
62.0924543
21
-30.8170625
0
LINE
8
0
10
47.9613847
20
-34.3260328
11
61.9528563
21
-34.8146258
0
LINE
8
0
10
47.4727917
20
-48.3175044
11
61.4642633
21
-48.8060974
0
LINE
8
0
10
47.9613847
20
-34.3260328
11
47.4727917
21
-48.3175044
0
LINE
8
0
10
61.9528563
20
-34.8146258
11
61.4642633
21
-48.8060974
0
LINE
8
0
10
304.7163515
20
-5.05101
11
318.7078231
21
-5.539603
0
LINE
8
0
10
304.2277585
20
-19.0424816
11
318.2192301
21
-19.5310746
0
LINE
8
0
10
304.7163515
20
-5.05101
11
304.2277585
21
-19.0424816
0
LINE
8
0
10
318.7078231
20
-5.539603
11
318.2192301
21
-19.5310746
0
LINE
8
0
10
304.0881606
20
-23.0400448
11
318.0796322
21
-23.5286378
0
LINE
8
0
10
303.5995676
20
-37.0315164
11
317.5910392
21
-37.5201094
0
LINE
8
0
10
304.0881606
20
-23.0400448
11
303.5995676
21
-37.0315164
0
LINE
8
0
10
318.0796322
20
-23.5286378
11
317.5910392
21
-37.5201094
0
LINE
8
0
10
303.4599696
20
-41.0290797
11
317.4514412
21
-41.5176727
0
LINE
8
0
10
302.9713766
20
-55.0205513
11
316.9628482
21
-55.5091443
0
LINE
8
0
10
303.4599696
20
-41.0290797
11
302.9713766
21
-55.0205513
0
LINE
8
0
10
317.4514412
20
-41.5176727
11
316.9628482
21
-55.5091443
0
LINE
8
0
10
322.7053864
20
-10.1792009
11
336.696858
21
-10.6677939
0
LINE
8
0
10
322.2167934
20
-24.1706725
11
336.208265
21
-24.6592655
0
LINE
8
0
10
322.7053864
20
-10.1792009
11
322.2167934
21
-24.1706725
0
LINE
8
0
10
336.696858
20
-10.6677939
11
336.208265
21
-24.6592655
0
LINE
8
0
10
322.0771954
20
-28.1682358
11
336.068667
21
-28.6568288
0
LINE
8
0
10
321.5886024
20
-42.1597074
11
335.580074
21
-42.6483004
0
LINE
8
0
10
322.0771954
20
-28.1682358
11
321.5886024
21
-42.1597074
0
LINE
8
0
10
336.068667
20
-28.6568288
11
335.580074
21
-42.6483004
0
LINE
8
0
10
321.4490045
20
-46.1572707
11
335.4404761
21
-46.6458637
0
LINE
8
0
10
320.9604115
20
-60.1487423
11
334.9518831
21
-60.6373353
0
LINE
8
0
10
321.4490045
20
-46.1572707
11
320.9604115
21
-60.1487423
0
LINE
8
0
10
335.4404761
20
-46.6458637
11
334.9518831
21
-60.6373353
0
LINE
8
0
10
71.0059365
20
2.4215511
11
84.929243
21
0.9581526
0
LINE
8
0
10
69.542538
20
-11.5017554
11
83.4658445
21
-12.9651539
0
LINE
8
0
10
71.0059365
20
2.4215511
11
69.542538
21
-11.5017554
0
LINE
8
0
10
84.929243
20
0.9581526
11
83.4658445
21
-12.9651539
0
LINE
8
0
10
69.1244241
20
-15.479843
11
83.0477306
21
-16.9432415
0
LINE
8
0
10
67.6610256
20
-29.4031495
11
81.5843321
21
-30.866548
0
LINE
8
0
10
69.1244241
20
-15.479843
11
67.6610256
21
-29.4031495
0
LINE
8
0
10
83.0477306
20
-16.9432415
11
81.5843321
21
-30.866548
0
LINE
8
0
10
67.2429118
20
-33.3812371
11
81.1662183
21
-34.8446356
0
LINE
8
0
10
65.7795133
20
-47.3045436
11
79.7028198
21
-48.7679421
0
LINE
8
0
10
67.2429118
20
-33.3812371
11
65.7795133
21
-47.3045436
0
LINE
8
0
10
81.1662183
20
-34.8446356
11
79.7028198
21
-48.7679421
0
LINE
8
0
10
91.4046289
20
-5.3092573
11
105.2322656
21
-7.4993398
0
LINE
8
0
10
89.2145464
20
-19.136894
11
103.0421831
21
-21.3269765
0
LINE
8
0
10
91.4046289
20
-5.3092573
11
89.2145464
21
-19.136894
0
LINE
8
0
10
105.2322656
20
-7.4993398
11
103.0421831
21
-21.3269765
0
LINE
8
0
10
88.5888085
20
-23.0876474
11
102.4164452
21
-25.2777299
0
LINE
8
0
10
86.398726
20
-36.9152841
11
100.2263627
21
-39.1053666
0
LINE
8
0
10
88.5888085
20
-23.0876474
11
86.398726
21
-36.9152841
0
LINE
8
0
10
102.4164452
20
-25.2777299
11
100.2263627
21
-39.1053666
0
LINE
8
0
10
85.7729882
20
-40.8660375
11
99.6006249
21
-43.05612
0
LINE
8
0
10
83.5829057
20
-54.6936742
11
97.4105424
21
-56.8837567
0
LINE
8
0
10
85.7729882
20
-40.8660375
11
83.5829057
21
-54.6936742
0
LINE
8
0
10
99.6006249
20
-43.05612
11
97.4105424
21
-56.8837567
0
LINE
8
0
10
112.5318549
20
-13.4349783
11
126.1730358
21
-16.584293
0
LINE
8
0
10
109.3825402
20
-27.0761592
11
123.0237211
21
-30.2254739
0
LINE
8
0
10
112.5318549
20
-13.4349783
11
109.3825402
21
-27.0761592
0
LINE
8
0
10
126.1730358
20
-16.584293
11
123.0237211
21
-30.2254739
0
LINE
8
0
10
108.4827359
20
-30.9736395
11
122.1239168
21
-34.1229542
0
LINE
8
0
10
105.3334212
20
-44.6148204
11
118.9746021
21
-47.7641351
0
LINE
8
0
10
108.4827359
20
-30.9736395
11
105.3334212
21
-44.6148204
0
LINE
8
0
10
122.1239168
20
-34.1229542
11
118.9746021
21
-47.7641351
0
LINE
8
0
10
104.4336169
20
-48.5123006
11
118.0747978
21
-51.6616153
0
LINE
8
0
10
101.2843022
20
-62.1534815
11
114.9254831
21
-65.3027962
0
LINE
8
0
10
104.4336169
20
-48.5123006
11
101.2843022
21
-62.1534815
0
LINE
8
0
10
118.0747978
20
-51.6616153
11
114.9254831
21
-65.3027962
0
LINE
8
0
10
80.6653703
20
-81.4695289
11
94.1883319
21
-85.0929955
0
LINE
8
0
10
77.0419037
20
-94.9924905
11
90.5648653
21
-98.6159571
0
LINE
8
0
10
80.6653703
20
-81.4695289
11
77.0419037
21
-94.9924905
0
LINE
8
0
10
94.1883319
20
-85.0929955
11
90.5648653
21
-98.6159571
0
LINE
8
0
10
116.2449885
20
-89.4409291
11
109.8891215
21
-101.9150205
0
LINE
8
0
10
103.7708971
20
-83.0850621
11
97.4150301
21
-95.5591535
0
LINE
8
0
10
116.2449885
20
-89.4409291
11
103.7708971
21
-83.0850621
0
LINE
8
0
10
109.8891215
20
-101.9150205
11
97.4150301
21
-95.5591535
0
LINE
8
0
10
120.5836294
20
-97.8790267
11
131.4636729
21
-106.6895122
0
LINE
8
0
10
111.7731439
20
-108.7590702
11
122.6531874
21
-117.5695557
0
LINE
8
0
10
120.5836294
20
-97.8790267
11
111.7731439
21
-108.7590702
0
LINE
8
0
10
131.4636729
20
-106.6895122
11
122.6531874
21
-117.5695557
0
LINE
8
0
10
210.5363271
20
-106.6895122
11
221.4163706
21
-97.8790267
0
LINE
8
0
10
219.3468126
20
-117.5695557
11
230.2268561
21
-108.7590702
0
LINE
8
0
10
210.5363271
20
-106.6895122
11
219.3468126
21
-117.5695557
0
LINE
8
0
10
221.4163706
20
-97.8790267
11
230.2268561
21
-108.7590702
0
LINE
8
0
10
238.2291029
20
-83.0850621
11
244.5849699
21
-95.5591535
0
LINE
8
0
10
225.7550115
20
-89.4409291
11
232.1108785
21
-101.9150205
0
LINE
8
0
10
238.2291029
20
-83.0850621
11
225.7550115
21
-89.4409291
0
LINE
8
0
10
244.5849699
20
-95.5591535
11
232.1108785
21
-101.9150205
0
LINE
8
0
10
247.8116681
20
-85.0929955
11
261.3346297
21
-81.4695289
0
LINE
8
0
10
251.4351347
20
-98.6159571
11
264.9580963
21
-94.9924905
0
LINE
8
0
10
247.8116681
20
-85.0929955
11
251.4351347
21
-98.6159571
0
LINE
8
0
10
261.3346297
20
-81.4695289
11
264.9580963
21
-94.9924905
0
LINE
8
0
10
215.8269642
20
-16.584293
11
229.4681451
21
-13.4349783
0
LINE
8
0
10
218.9762789
20
-30.2254739
11
232.6174598
21
-27.0761592
0
LINE
8
0
10
215.8269642
20
-16.584293
11
218.9762789
21
-30.2254739
0
LINE
8
0
10
229.4681451
20
-13.4349783
11
232.6174598
21
-27.0761592
0
LINE
8
0
10
219.8760832
20
-34.1229542
11
233.5172641
21
-30.9736395
0
LINE
8
0
10
223.0253979
20
-47.7641351
11
236.6665788
21
-44.6148204
0
LINE
8
0
10
219.8760832
20
-34.1229542
11
223.0253979
21
-47.7641351
0
LINE
8
0
10
233.5172641
20
-30.9736395
11
236.6665788
21
-44.6148204
0
LINE
8
0
10
223.9252022
20
-51.6616153
11
237.5663831
21
-48.5123006
0
LINE
8
0
10
227.0745169
20
-65.3027962
11
240.7156978
21
-62.1534815
0
LINE
8
0
10
223.9252022
20
-51.6616153
11
227.0745169
21
-65.3027962
0
LINE
8
0
10
237.5663831
20
-48.5123006
11
240.7156978
21
-62.1534815
0
LINE
8
0
10
236.7677344
20
-7.4993398
11
250.5953711
21
-5.3092573
0
LINE
8
0
10
238.9578169
20
-21.3269765
11
252.7854536
21
-19.136894
0
LINE
8
0
10
236.7677344
20
-7.4993398
11
238.9578169
21
-21.3269765
0
LINE
8
0
10
250.5953711
20
-5.3092573
11
252.7854536
21
-19.136894
0
LINE
8
0
10
239.5835548
20
-25.2777299
11
253.4111915
21
-23.0876474
0
LINE
8
0
10
241.7736373
20
-39.1053666
11
255.601274
21
-36.9152841
0
LINE
8
0
10
239.5835548
20
-25.2777299
11
241.7736373
21
-39.1053666
0
LINE
8
0
10
253.4111915
20
-23.0876474
11
255.601274
21
-36.9152841
0
LINE
8
0
10
242.3993751
20
-43.05612
11
256.2270118
21
-40.8660375
0
LINE
8
0
10
244.5894576
20
-56.8837567
11
258.4170943
21
-54.6936742
0
LINE
8
0
10
242.3993751
20
-43.05612
11
244.5894576
21
-56.8837567
0
LINE
8
0
10
256.2270118
20
-40.8660375
11
258.4170943
21
-54.6936742
0
LINE
8
0
10
257.070757
20
0.9581526
11
270.9940635
21
2.4215511
0
LINE
8
0
10
258.5341555
20
-12.9651539
11
272.457462
21
-11.5017554
0
LINE
8
0
10
257.070757
20
0.9581526
11
258.5341555
21
-12.9651539
0
LINE
8
0
10
270.9940635
20
2.4215511
11
272.457462
21
-11.5017554
0
LINE
8
0
10
258.9522694
20
-16.9432415
11
272.8755759
21
-15.479843
0
LINE
8
0
10
260.4156679
20
-30.866548
11
274.3389744
21
-29.4031495
0
LINE
8
0
10
258.9522694
20
-16.9432415
11
260.4156679
21
-30.866548
0
LINE
8
0
10
272.8755759
20
-15.479843
11
274.3389744
21
-29.4031495
0
LINE
8
0
10
260.8337817
20
-34.8446356
11
274.7570882
21
-33.3812371
0
LINE
8
0
10
262.2971802
20
-48.7679421
11
276.2204867
21
-47.3045436
0
LINE
8
0
10
260.8337817
20
-34.8446356
11
262.2971802
21
-48.7679421
0
LINE
8
0
10
274.7570882
20
-33.3812371
11
276.2204867
21
-47.3045436
0
LINE
8
0
10
23.2921769
20
-5.539603
11
37.2836485
21
-5.05101
0
LINE
8
0
10
23.7807699
20
-19.5310746
11
37.7722415
21
-19.0424816
0
LINE
8
0
10
23.2921769
20
-5.539603
11
23.7807699
21
-19.5310746
0
LINE
8
0
10
37.2836485
20
-5.05101
11
37.7722415
21
-19.0424816
0
LINE
8
0
10
23.9203678
20
-23.5286378
11
37.9118394
21
-23.0400448
0
LINE
8
0
10
24.4089608
20
-37.5201094
11
38.4004324
21
-37.0315164
0
LINE
8
0
10
23.9203678
20
-23.5286378
11
24.4089608
21
-37.5201094
0
LINE
8
0
10
37.9118394
20
-23.0400448
11
38.4004324
21
-37.0315164
0
LINE
8
0
10
24.5485588
20
-41.5176727
11
38.5400304
21
-41.0290797
0
LINE
8
0
10
25.0371518
20
-55.5091443
11
39.0286234
21
-55.0205513
0
LINE
8
0
10
24.5485588
20
-41.5176727
11
25.0371518
21
-55.5091443
0
LINE
8
0
10
38.5400304
20
-41.0290797
11
39.0286234
21
-55.0205513
0
LINE
8
0
10
5.303142
20
-10.6677939
11
19.2946136
21
-10.1792009
0
LINE
8
0
10
5.791735
20
-24.6592655
11
19.7832066
21
-24.1706725
0
LINE
8
0
10
5.303142
20
-10.6677939
11
5.791735
21
-24.6592655
0
LINE
8
0
10
19.2946136
20
-10.1792009
11
19.7832066
21
-24.1706725
0
LINE
8
0
10
5.931333
20
-28.6568288
11
19.9228046
21
-28.1682358
0
LINE
8
0
10
6.419926
20
-42.6483004
11
20.4113976
21
-42.1597074
0
LINE
8
0
10
5.931333
20
-28.6568288
11
6.419926
21
-42.6483004
0
LINE
8
0
10
19.9228046
20
-28.1682358
11
20.4113976
21
-42.1597074
0
LINE
8
0
10
6.5595239
20
-46.6458637
11
20.5509955
21
-46.1572707
0
LINE
8
0
10
7.0481169
20
-60.6373353
11
21.0395885
21
-60.1487423
0
LINE
8
0
10
6.5595239
20
-46.6458637
11
7.0481169
21
-60.6373353
0
LINE
8
0
10
20.5509955
20
-46.1572707
11
21.0395885
21
-60.1487423
0
LINE
8
0
10
278.7907618
20
1.163444
11
292.7822334
21
1.652037
0
LINE
8
0
10
279.2793548
20
-12.8280276
11
293.2708264
21
-12.3394346
0
LINE
8
0
10
278.7907618
20
1.163444
11
279.2793548
21
-12.8280276
0
LINE
8
0
10
292.7822334
20
1.652037
11
293.2708264
21
-12.3394346
0
LINE
8
0
10
279.4189527
20
-16.8255909
11
293.4104243
21
-16.3369979
0
LINE
8
0
10
279.9075457
20
-30.8170625
11
293.8990173
21
-30.3284695
0
LINE
8
0
10
279.4189527
20
-16.8255909
11
279.9075457
21
-30.8170625
0
LINE
8
0
10
293.4104243
20
-16.3369979
11
293.8990173
21
-30.3284695
0
LINE
8
0
10
280.0471437
20
-34.8146258
11
294.0386153
21
-34.3260328
0
LINE
8
0
10
280.5357367
20
-48.8060974
11
294.5272083
21
-48.3175044
0
LINE
8
0
10
280.0471437
20
-34.8146258
11
280.5357367
21
-48.8060974
0
LINE
8
0
10
294.0386153
20
-34.3260328
11
294.5272083
21
-48.3175044
0
LINE
8
0
10
3.5431743
20
-116.7242912
11
338.4568257
21
-116.7242912
0
LINE
8
0
10
3.5431743
20
3.7281986
11
338.4568257
21
3.7281986
0
LINE
8
0
10
3.5431743
20
-116.7242912
11
3.5431743
21
3.7281986
0
LINE
8
0
10
338.4568257
20
-116.7242912
11
338.4568257
21
3.7281986
0
ENDSEC
0
EOF