<svg width="367.437mm" height="118.244mm" viewBox="0 0 367.437 118.244" xmlns="http://www.w3.org/2000/svg"><g id="svgGroup" stroke-linecap="round" fill-rule="evenodd" font-size="9pt" stroke="#000" stroke-width="0.25mm" fill="none" style="stroke:#000;stroke-width:0.25mm;fill:none"><path d="M 0 118.19 L 367.437 118.19 L 367.437 0 L 0 0 L 0 118.19 Z M 94.598 10.11 L 107.438 12.144 A 0.5 0.5 0 0 1 107.854 12.716 L 105.82 25.556 A 0.5 0.5 0 0 1 105.248 25.971 L 92.408 23.938 A 0.5 0.5 0 0 1 91.993 23.366 L 94.026 10.526 A 0.5 0.5 0 0 1 94.598 10.11 Z M 113.215 13.069 L 126.055 15.103 A 0.5 0.5 0 0 1 126.471 15.675 L 124.437 28.515 A 0.5 0.5 0 0 1 123.865 28.931 L 111.025 26.897 A 0.5 0.5 0 0 1 110.61 26.325 L 112.643 13.485 A 0.5 0.5 0 0 1 113.215 13.069 Z M 91.618 28.926 L 104.458 30.959 A 0.5 0.5 0 0 1 104.874 31.531 L 102.84 44.371 A 0.5 0.5 0 0 1 102.268 44.787 L 89.428 42.753 A 0.5 0.5 0 0 1 89.013 42.181 L 91.046 29.341 A 0.5 0.5 0 0 1 91.618 28.926 Z M 110.235 31.885 L 123.075 33.918 A 0.5 0.5 0 0 1 123.491 34.49 L 121.457 47.33 A 0.5 0.5 0 0 1 120.885 47.746 L 108.045 45.712 A 0.5 0.5 0 0 1 107.63 45.14 L 109.663 32.3 A 0.5 0.5 0 0 1 110.235 31.885 Z M 88.638 47.741 L 101.478 49.775 A 0.5 0.5 0 0 1 101.894 50.347 L 99.86 63.187 A 0.5 0.5 0 0 1 99.288 63.602 L 86.448 61.569 A 0.5 0.5 0 0 1 86.032 60.997 L 88.066 48.157 A 0.5 0.5 0 0 1 88.638 47.741 Z M 107.255 50.7 L 120.095 52.734 A 0.5 0.5 0 0 1 120.511 53.306 L 118.477 66.146 A 0.5 0.5 0 0 1 117.905 66.561 L 105.065 64.528 A 0.5 0.5 0 0 1 104.65 63.956 L 106.683 51.116 A 0.5 0.5 0 0 1 107.255 50.7 Z M 259.999 12.144 L 272.839 10.11 A 0.5 0.5 0 0 1 273.411 10.526 L 275.444 23.366 A 0.5 0.5 0 0 1 275.029 23.938 L 262.189 25.971 A 0.5 0.5 0 0 1 261.617 25.556 L 259.583 12.716 A 0.5 0.5 0 0 1 259.999 12.144 Z M 241.382 15.103 L 254.221 13.069 A 0.5 0.5 0 0 1 254.794 13.485 L 256.827 26.325 A 0.5 0.5 0 0 1 256.412 26.897 L 243.572 28.931 A 0.5 0.5 0 0 1 243 28.515 L 240.966 15.675 A 0.5 0.5 0 0 1 241.382 15.103 Z M 262.979 30.959 L 275.819 28.926 A 0.5 0.5 0 0 1 276.391 29.341 L 278.424 42.181 A 0.5 0.5 0 0 1 278.009 42.753 L 265.169 44.787 A 0.5 0.5 0 0 1 264.597 44.371 L 262.563 31.531 A 0.5 0.5 0 0 1 262.979 30.959 Z M 244.362 33.918 L 257.202 31.885 A 0.5 0.5 0 0 1 257.774 32.3 L 259.807 45.14 A 0.5 0.5 0 0 1 259.392 45.712 L 246.552 47.746 A 0.5 0.5 0 0 1 245.98 47.33 L 243.946 34.49 A 0.5 0.5 0 0 1 244.362 33.918 Z M 265.959 49.775 L 278.799 47.741 A 0.5 0.5 0 0 1 279.371 48.157 L 281.404 60.997 A 0.5 0.5 0 0 1 280.989 61.569 L 268.149 63.602 A 0.5 0.5 0 0 1 267.577 63.187 L 265.543 50.347 A 0.5 0.5 0 0 1 265.959 49.775 Z M 247.342 52.734 L 260.182 50.7 A 0.5 0.5 0 0 1 260.754 51.116 L 262.787 63.956 A 0.5 0.5 0 0 1 262.372 64.528 L 249.532 66.561 A 0.5 0.5 0 0 1 248.96 66.146 L 246.926 53.306 A 0.5 0.5 0 0 1 247.342 52.734 Z M 99.758 84.143 L 112.687 85.502 A 0.5 0.5 0 0 1 113.132 86.051 L 111.773 98.98 A 0.5 0.5 0 0 1 111.223 99.425 L 98.294 98.066 A 0.5 0.5 0 0 1 97.849 97.517 L 99.208 84.588 A 0.5 0.5 0 0 1 99.758 84.143 Z M 73.037 1.884 L 85.966 3.243 A 0.5 0.5 0 0 1 86.411 3.792 L 85.052 16.721 A 0.5 0.5 0 0 1 84.502 17.166 L 71.574 15.807 A 0.5 0.5 0 0 1 71.129 15.258 L 72.488 2.329 A 0.5 0.5 0 0 1 73.037 1.884 Z M 71.046 20.83 L 83.975 22.188 A 0.5 0.5 0 0 1 84.42 22.738 L 83.061 35.667 A 0.5 0.5 0 0 1 82.511 36.112 L 69.582 34.753 A 0.5 0.5 0 0 1 69.137 34.203 L 70.496 21.275 A 0.5 0.5 0 0 1 71.046 20.83 Z M 69.055 39.775 L 81.983 41.134 A 0.5 0.5 0 0 1 82.428 41.684 L 81.069 54.612 A 0.5 0.5 0 0 1 80.52 55.057 L 67.591 53.699 A 0.5 0.5 0 0 1 67.146 53.149 L 68.505 40.22 A 0.5 0.5 0 0 1 69.055 39.775 Z M 330.054 76.695 L 342.983 78.054 A 0.5 0.5 0 0 1 343.428 78.604 L 342.069 91.533 A 0.5 0.5 0 0 1 341.52 91.978 L 328.591 90.619 A 0.5 0.5 0 0 1 328.146 90.069 L 329.505 77.14 A 0.5 0.5 0 0 1 330.054 76.695 Z M 309.308 93.668 L 322.237 95.027 A 0.5 0.5 0 0 1 322.682 95.576 L 321.323 108.505 A 0.5 0.5 0 0 1 320.773 108.95 L 307.844 107.591 A 0.5 0.5 0 0 1 307.399 107.042 L 308.758 94.113 A 0.5 0.5 0 0 1 309.308 93.668 Z M 328.253 95.659 L 341.182 97.018 A 0.5 0.5 0 0 1 341.627 97.567 L 340.268 110.496 A 0.5 0.5 0 0 1 339.719 110.941 L 326.79 109.582 A 0.5 0.5 0 0 1 326.345 109.033 L 327.704 96.104 A 0.5 0.5 0 0 1 328.253 95.659 Z M 6.638 52.921 L 19.567 51.562 A 0.5 0.5 0 0 1 20.116 52.007 L 21.475 64.936 A 0.5 0.5 0 0 1 21.03 65.486 L 8.101 66.845 A 0.5 0.5 0 0 1 7.552 66.4 L 6.193 53.471 A 0.5 0.5 0 0 1 6.638 52.921 Z M 254.75 85.502 L 267.679 84.143 A 0.5 0.5 0 0 1 268.229 84.588 L 269.587 97.517 A 0.5 0.5 0 0 1 269.142 98.066 L 256.214 99.425 A 0.5 0.5 0 0 1 255.664 98.98 L 254.305 86.051 A 0.5 0.5 0 0 1 254.75 85.502 Z M 347.199 97.65 L 360.128 99.009 A 0.5 0.5 0 0 1 360.573 99.559 L 359.214 112.488 A 0.5 0.5 0 0 1 358.665 112.933 L 345.736 111.574 A 0.5 0.5 0 0 1 345.291 111.024 L 346.65 98.095 A 0.5 0.5 0 0 1 347.199 97.65 Z M 4.647 33.976 L 17.575 32.617 A 0.5 0.5 0 0 1 18.125 33.062 L 19.484 45.99 A 0.5 0.5 0 0 1 19.039 46.54 L 6.11 47.899 A 0.5 0.5 0 0 1 5.561 47.454 L 4.202 34.525 A 0.5 0.5 0 0 1 4.647 33.976 Z M 349.861 32.617 L 362.79 33.976 A 0.5 0.5 0 0 1 363.235 34.525 L 361.876 47.454 A 0.5 0.5 0 0 1 361.327 47.899 L 348.398 46.54 A 0.5 0.5 0 0 1 347.953 45.99 L 349.312 33.062 A 0.5 0.5 0 0 1 349.861 32.617 Z M 347.87 51.562 L 360.799 52.921 A 0.5 0.5 0 0 1 361.244 53.471 L 359.885 66.4 A 0.5 0.5 0 0 1 359.336 66.845 L 346.407 65.486 A 0.5 0.5 0 0 1 345.962 64.936 L 347.321 52.007 A 0.5 0.5 0 0 1 347.87 51.562 Z M 281.471 3.243 L 294.4 1.884 A 0.5 0.5 0 0 1 294.949 2.329 L 296.308 15.258 A 0.5 0.5 0 0 1 295.863 15.807 L 282.934 17.166 A 0.5 0.5 0 0 1 282.385 16.721 L 281.026 3.792 A 0.5 0.5 0 0 1 281.471 3.243 Z M 285.454 41.134 L 298.382 39.775 A 0.5 0.5 0 0 1 298.932 40.22 L 300.291 53.149 A 0.5 0.5 0 0 1 299.846 53.699 L 286.917 55.057 A 0.5 0.5 0 0 1 286.367 54.612 L 285.009 41.684 A 0.5 0.5 0 0 1 285.454 41.134 Z M 283.462 22.188 L 296.391 20.83 A 0.5 0.5 0 0 1 296.941 21.275 L 298.299 34.203 A 0.5 0.5 0 0 1 297.854 34.753 L 284.926 36.112 A 0.5 0.5 0 0 1 284.376 35.667 L 283.017 22.738 A 0.5 0.5 0 0 1 283.462 22.188 Z M 326.704 47.808 L 339.696 48.262 A 0.5 0.5 0 0 1 340.178 48.779 L 339.724 61.771 A 0.5 0.5 0 0 1 339.207 62.253 L 326.215 61.799 A 0.5 0.5 0 0 1 325.733 61.282 L 326.187 48.29 A 0.5 0.5 0 0 1 326.704 47.808 Z M 26.411 10.185 L 39.403 9.731 A 0.5 0.5 0 0 1 39.921 10.213 L 40.374 23.205 A 0.5 0.5 0 0 1 39.892 23.723 L 26.9 24.176 A 0.5 0.5 0 0 1 26.383 23.694 L 25.929 10.702 A 0.5 0.5 0 0 1 26.411 10.185 Z M 27.076 29.223 L 40.068 28.77 A 0.5 0.5 0 0 1 40.585 29.252 L 41.039 42.244 A 0.5 0.5 0 0 1 40.557 42.761 L 27.565 43.215 A 0.5 0.5 0 0 1 27.048 42.732 L 26.594 29.74 A 0.5 0.5 0 0 1 27.076 29.223 Z M 27.741 48.262 L 40.733 47.808 A 0.5 0.5 0 0 1 41.25 48.29 L 41.704 61.282 A 0.5 0.5 0 0 1 41.222 61.799 L 28.23 62.253 A 0.5 0.5 0 0 1 27.712 61.771 L 27.259 48.779 A 0.5 0.5 0 0 1 27.741 48.262 Z M 327.369 28.77 L 340.361 29.223 A 0.5 0.5 0 0 1 340.843 29.74 L 340.389 42.732 A 0.5 0.5 0 0 1 339.872 43.215 L 326.88 42.761 A 0.5 0.5 0 0 1 326.398 42.244 L 326.851 29.252 A 0.5 0.5 0 0 1 327.369 28.77 Z M 328.033 9.731 L 341.026 10.185 A 0.5 0.5 0 0 1 341.508 10.702 L 341.054 23.694 A 0.5 0.5 0 0 1 340.537 24.176 L 327.545 23.723 A 0.5 0.5 0 0 1 327.063 23.205 L 327.516 10.213 A 0.5 0.5 0 0 1 328.033 9.731 Z M 11.992 94.98 L 24.992 94.98 A 0.5 0.5 0 0 1 25.492 95.48 L 25.492 108.48 A 0.5 0.5 0 0 1 24.992 108.98 L 11.992 108.98 A 0.5 0.5 0 0 1 11.492 108.48 L 11.492 95.48 A 0.5 0.5 0 0 1 11.992 94.98 Z M 145.158 99.182 L 155.676 106.823 A 0.5 0.5 0 0 1 155.786 107.521 L 148.145 118.038 A 0.5 0.5 0 0 1 147.447 118.149 L 136.929 110.508 A 0.5 0.5 0 0 1 136.819 109.809 L 144.46 99.292 A 0.5 0.5 0 0 1 145.158 99.182 Z M 211.761 106.823 L 222.279 99.182 A 0.5 0.5 0 0 1 222.977 99.292 L 230.618 109.809 A 0.5 0.5 0 0 1 230.508 110.508 L 219.99 118.149 A 0.5 0.5 0 0 1 219.292 118.038 L 211.651 107.521 A 0.5 0.5 0 0 1 211.761 106.823 Z M 246.123 92.643 L 250.782 104.779 A 0.5 0.5 0 0 1 250.494 105.425 L 238.358 110.084 A 0.5 0.5 0 0 1 237.712 109.796 L 233.053 97.66 A 0.5 0.5 0 0 1 233.341 97.014 L 245.477 92.355 A 0.5 0.5 0 0 1 246.123 92.643 Z M 134.384 97.66 L 129.725 109.796 A 0.5 0.5 0 0 1 129.079 110.084 L 116.942 105.425 A 0.5 0.5 0 0 1 116.655 104.779 L 121.314 92.643 A 0.5 0.5 0 0 1 121.96 92.355 L 134.096 97.014 A 0.5 0.5 0 0 1 134.384 97.66 Z M 49.286 40.185 L 62.255 41.092 A 0.5 0.5 0 0 1 62.719 41.626 L 61.812 54.594 A 0.5 0.5 0 0 1 61.278 55.058 L 48.31 54.151 A 0.5 0.5 0 0 1 47.846 53.618 L 48.753 40.649 A 0.5 0.5 0 0 1 49.286 40.185 Z M 51.944 2.178 L 64.912 3.085 A 0.5 0.5 0 0 1 65.376 3.619 L 64.47 16.587 A 0.5 0.5 0 0 1 63.936 17.051 L 50.968 16.144 A 0.5 0.5 0 0 1 50.504 15.61 L 51.41 2.642 A 0.5 0.5 0 0 1 51.944 2.178 Z M 50.615 21.182 L 63.584 22.089 A 0.5 0.5 0 0 1 64.048 22.622 L 63.141 35.591 A 0.5 0.5 0 0 1 62.607 36.055 L 49.639 35.148 A 0.5 0.5 0 0 1 49.175 34.614 L 50.082 21.646 A 0.5 0.5 0 0 1 50.615 21.182 Z M 351.916 10.652 L 364.884 11.558 A 0.5 0.5 0 0 1 365.348 12.092 L 364.441 25.06 A 0.5 0.5 0 0 1 363.908 25.524 L 350.939 24.617 A 0.5 0.5 0 0 1 350.476 24.084 L 351.382 11.115 A 0.5 0.5 0 0 1 351.916 10.652 Z M 2.553 11.558 L 15.521 10.652 A 0.5 0.5 0 0 1 16.055 11.115 L 16.961 24.084 A 0.5 0.5 0 0 1 16.497 24.617 L 3.529 25.524 A 0.5 0.5 0 0 1 2.995 25.06 L 2.089 12.092 A 0.5 0.5 0 0 1 2.553 11.558 Z M 302.524 3.085 L 315.493 2.178 A 0.5 0.5 0 0 1 316.026 2.642 L 316.933 15.61 A 0.5 0.5 0 0 1 316.469 16.144 L 303.501 17.051 A 0.5 0.5 0 0 1 302.967 16.587 L 302.061 3.619 A 0.5 0.5 0 0 1 302.524 3.085 Z M 303.853 22.089 L 316.822 21.182 A 0.5 0.5 0 0 1 317.355 21.646 L 318.262 34.614 A 0.5 0.5 0 0 1 317.798 35.148 L 304.83 36.055 A 0.5 0.5 0 0 1 304.296 35.591 L 303.389 22.622 A 0.5 0.5 0 0 1 303.853 22.089 Z M 305.182 41.092 L 318.15 40.185 A 0.5 0.5 0 0 1 318.684 40.649 L 319.591 53.618 A 0.5 0.5 0 0 1 319.127 54.151 L 306.159 55.058 A 0.5 0.5 0 0 1 305.625 54.594 L 304.718 41.626 A 0.5 0.5 0 0 1 305.182 41.092 Z" vector-effect="non-scaling-stroke"/></g></svg>