0
SECTION
2
HEADER
9
$INSUNITS
70
4
0
ENDSEC
0
SECTION
2
TABLES
0
TABLE
2
LTYPE
0
LTYPE
72
65
70
64
2
CONTINUOUS
3
______
73
0
40
0
0
ENDTAB
0
TABLE
2
LAYER
0
ENDTAB
0
ENDSEC
0
SECTION
2
ENTITIES
0
LINE
8
0
10
334.8150014
20
-5.7854372
11
347.8070822
21
-6.2391306
0
LINE
8
0
10
334.3264084
20
-19.7769088
11
347.3184892
21
-20.2306022
0
LINE
8
0
10
334.2978562
20
-6.2676828
11
333.8441628
21
-19.2597636
0
LINE
8
0
10
348.2893278
20
-6.7562758
11
347.8356344
21
-19.7483566
0
ARC
8
0
10
334.7975517
20
-6.2851326
40
0.5
50
88
51
178
0
ARC
8
0
10
347.7896324
20
-6.7388261
40
0.5
50
358
51
88
0
ARC
8
0
10
334.3438582
20
-19.2772133
40
0.5
50
178
51
268
0
ARC
8
0
10
347.3359389
20
-19.7309068
40
0.5
50
268
51
358
0
LINE
8
0
10
334.1501659
20
-24.8238325
11
347.1422467
21
-25.2775259
0
LINE
8
0
10
333.6615729
20
-38.8153041
11
346.6536537
21
-39.2689975
0
LINE
8
0
10
333.6330207
20
-25.3060781
11
333.1793273
21
-38.2981589
0
LINE
8
0
10
347.6244923
20
-25.7946711
11
347.1707989
21
-38.7867519
0
ARC
8
0
10
334.1327162
20
-25.3235279
40
0.5
50
88
51
178
0
ARC
8
0
10
347.1247969
20
-25.7772214
40
0.5
50
358
51
88
0
ARC
8
0
10
333.6790227
20
-38.3156086
40
0.5
50
178
51
268
0
ARC
8
0
10
346.6711034
20
-38.7693021
40
0.5
50
268
51
358
0
LINE
8
0
10
333.4853305
20
-43.8622277
11
346.4774113
21
-44.3159211
0
LINE
8
0
10
332.9967375
20
-57.8536993
11
345.9888183
21
-58.3073927
0
LINE
8
0
10
332.9681853
20
-44.3444733
11
332.5144919
21
-57.3365541
0
LINE
8
0
10
346.9596569
20
-44.8330663
11
346.5059635
21
-57.8251471
0
ARC
8
0
10
333.4678808
20
-44.3619231
40
0.5
50
88
51
178
0
ARC
8
0
10
346.4599615
20
-44.8156166
40
0.5
50
358
51
88
0
ARC
8
0
10
333.0141873
20
-57.3540038
40
0.5
50
178
51
268
0
ARC
8
0
10
346.006268
20
-57.8076973
40
0.5
50
268
51
358
0
LINE
8
0
10
58.7256733
20
1.7674207
11
71.6940059
21
0.8605866
0
LINE
8
0
10
57.7490827
20
-12.198476
11
70.7174153
21
-13.1053101
0
LINE
8
0
10
58.192013
20
1.3035169
11
57.2851789
21
-11.6648157
0
LINE
8
0
10
72.1579097
20
0.3269263
11
71.2510756
21
-12.6414063
0
ARC
8
0
10
58.6907951
20
1.2686387
40
0.5
50
86
51
176
0
ARC
8
0
10
71.6591277
20
0.3618045
40
0.5
50
356
51
86
0
ARC
8
0
10
57.7839609
20
-11.6996939
40
0.5
50
176
51
266
0
ARC
8
0
10
70.7522935
20
-12.6065281
40
0.5
50
266
51
356
0
LINE
8
0
10
57.3968125
20
-17.2361744
11
70.3651451
21
-18.1430085
0
LINE
8
0
10
56.4202219
20
-31.2020711
11
69.3885545
21
-32.1089052
0
LINE
8
0
10
56.8631522
20
-17.7000782
11
55.9563181
21
-30.6684108
0
LINE
8
0
10
70.8290489
20
-18.6766688
11
69.9222148
21
-31.6450014
0
ARC
8
0
10
57.3619343
20
-17.7349564
40
0.5
50
86
51
176
0
ARC
8
0
10
70.3302669
20
-18.6417906
40
0.5
50
356
51
86
0
ARC
8
0
10
56.4551001
20
-30.703289
40
0.5
50
176
51
266
0
ARC
8
0
10
69.4234327
20
-31.6101232
40
0.5
50
266
51
356
0
LINE
8
0
10
56.0679516
20
-36.2397696
11
69.0362842
21
-37.1466037
0
LINE
8
0
10
55.091361
20
-50.2056663
11
68.0596936
21
-51.1125004
0
LINE
8
0
10
55.5342913
20
-36.7036734
11
54.6274572
21
-49.672006
0
LINE
8
0
10
69.500188
20
-37.680264
11
68.5933539
21
-50.6485966
0
ARC
8
0
10
56.0330734
20
-36.7385516
40
0.5
50
86
51
176
0
ARC
8
0
10
69.001406
20
-37.6453858
40
0.5
50
356
51
86
0
ARC
8
0
10
55.1262392
20
-49.7068842
40
0.5
50
176
51
266
0
ARC
8
0
10
68.0945718
20
-50.6137184
40
0.5
50
266
51
356
0
LINE
8
0
10
358.6975806
20
-6.7058272
11
371.6659132
21
-7.6126613
0
LINE
8
0
10
357.72099
20
-20.6717239
11
370.6893226
21
-21.578558
0
LINE
8
0
10
358.1639203
20
-7.169731
11
357.2570862
21
-20.1380636
0
LINE
8
0
10
372.129817
20
-8.1463216
11
371.2229829
21
-21.1146542
0
ARC
8
0
10
358.6627024
20
-7.2046092
40
0.5
50
86
51
176
0
ARC
8
0
10
371.631035
20
-8.1114434
40
0.5
50
356
51
86
0
ARC
8
0
10
357.7558682
20
-20.1729418
40
0.5
50
176
51
266
0
ARC
8
0
10
370.7242008
20
-21.079776
40
0.5
50
266
51
356
0
LINE
8
0
10
79.8186243
20
2.0617652
11
92.747409
21
0.7028952
0
LINE
8
0
10
78.3552258
20
-11.8615414
11
91.2840105
21
-13.2204114
0
LINE
8
0
10
79.2690991
20
1.6167685
11
77.9102291
21
-11.3120162
0
LINE
8
0
10
93.1924057
20
0.15337
11
91.8335357
21
-12.7754147
0
ARC
8
0
10
79.7663601
20
1.5645042
40
0.5
50
84
51
174
0
ARC
8
0
10
92.6951447
20
0.2056342
40
0.5
50
354
51
84
0
ARC
8
0
10
78.4074901
20
-11.3642804
40
0.5
50
174
51
264
0
ARC
8
0
10
91.3362747
20
-12.7231504
40
0.5
50
264
51
354
0
LINE
8
0
10
77.8273571
20
-16.8838769
11
90.7561418
21
-18.2427469
0
LINE
8
0
10
76.3639586
20
-30.8071835
11
89.2927433
21
-32.1660535
0
LINE
8
0
10
77.2778319
20
-17.3288736
11
75.9189619
21
-30.2576583
0
LINE
8
0
10
91.2011385
20
-18.7922721
11
89.8422685
21
-31.7210568
0
ARC
8
0
10
77.7750929
20
-17.3811379
40
0.5
50
84
51
174
0
ARC
8
0
10
90.7038775
20
-18.7400079
40
0.5
50
354
51
84
0
ARC
8
0
10
76.4162229
20
-30.3099225
40
0.5
50
174
51
264
0
ARC
8
0
10
89.3450075
20
-31.6687925
40
0.5
50
264
51
354
0
LINE
8
0
10
75.8360899
20
-35.829519
11
88.7648746
21
-37.188389
0
LINE
8
0
10
74.3726914
20
-49.7528256
11
87.3014761
21
-51.1116956
0
LINE
8
0
10
75.2865647
20
-36.2745157
11
73.9276947
21
-49.2033004
0
LINE
8
0
10
89.2098713
20
-37.7379142
11
87.8510013
21
-50.6666989
0
ARC
8
0
10
75.7838257
20
-36.32678
40
0.5
50
84
51
174
0
ARC
8
0
10
88.7126103
20
-37.68565
40
0.5
50
354
51
84
0
ARC
8
0
10
74.4249557
20
-49.2555646
40
0.5
50
174
51
264
0
ARC
8
0
10
87.3537403
20
-50.6144346
40
0.5
50
264
51
354
0
LINE
8
0
10
106.5394062
20
-80.197148
11
119.4681909
21
-81.556018
0
LINE
8
0
10
105.0760077
20
-94.1204546
11
118.0047924
21
-95.4793246
0
LINE
8
0
10
105.989881
20
-80.6421447
11
104.631011
21
-93.5709294
0
LINE
8
0
10
119.9131876
20
-82.1055432
11
118.5543176
21
-95.0343279
0
ARC
8
0
10
106.487142
20
-80.694409
40
0.5
50
84
51
174
0
ARC
8
0
10
119.4159266
20
-82.053279
40
0.5
50
354
51
84
0
ARC
8
0
10
105.128272
20
-93.6231936
40
0.5
50
174
51
264
0
ARC
8
0
10
118.0570566
20
-94.9820636
40
0.5
50
264
51
354
0
LINE
8
0
10
356.6429825
20
-28.6710085
11
369.5717672
21
-30.0298785
0
LINE
8
0
10
355.179584
20
-42.5943151
11
368.1083687
21
-43.9531851
0
LINE
8
0
10
356.0934573
20
-29.1160052
11
354.7345873
21
-42.0447899
0
LINE
8
0
10
370.0167639
20
-30.5794037
11
368.6578939
21
-43.5081884
0
ARC
8
0
10
356.5907183
20
-29.1682695
40
0.5
50
84
51
174
0
ARC
8
0
10
369.5195029
20
-30.5271395
40
0.5
50
354
51
84
0
ARC
8
0
10
355.2318483
20
-42.0970541
40
0.5
50
174
51
264
0
ARC
8
0
10
368.1606329
20
-43.4559241
40
0.5
50
264
51
354
0
LINE
8
0
10
354.6517152
20
-47.6166506
11
367.5804999
21
-48.9755206
0
LINE
8
0
10
353.1883167
20
-61.5399572
11
366.1171014
21
-62.8988272
0
LINE
8
0
10
354.10219
20
-48.0616473
11
352.74332
21
-60.990432
0
LINE
8
0
10
368.0254966
20
-49.5250458
11
366.6666266
21
-62.4538305
0
ARC
8
0
10
354.599451
20
-48.1139116
40
0.5
50
84
51
174
0
ARC
8
0
10
367.5282356
20
-49.4727816
40
0.5
50
354
51
84
0
ARC
8
0
10
353.240581
20
-61.0426962
40
0.5
50
174
51
264
0
ARC
8
0
10
366.1693656
20
-62.4015662
40
0.5
50
264
51
354
0
LINE
8
0
10
101.3798383
20
-6.1643646
11
114.2197868
21
-8.1980126
0
LINE
8
0
10
99.1897558
20
-19.9920014
11
112.0297043
21
-22.0256494
0
LINE
8
0
10
100.8077769
20
-6.5799915
11
98.7741289
21
-19.41994
0
LINE
8
0
10
114.6354137
20
-8.770074
11
112.6017657
21
-21.6100225
0
ARC
8
0
10
101.3016211
20
-6.6582088
40
0.5
50
81
51
171
0
ARC
8
0
10
114.1415695
20
-8.6918568
40
0.5
50
351
51
81
0
ARC
8
0
10
99.2679731
20
-19.4981572
40
0.5
50
171
51
261
0
ARC
8
0
10
112.1079215
20
-21.5318052
40
0.5
50
261
51
351
0
LINE
8
0
10
119.9969901
20
-9.1236013
11
132.8369386
21
-11.1572493
0
LINE
8
0
10
117.8069076
20
-22.9512381
11
130.6468561
21
-24.9848861
0
LINE
8
0
10
119.4249287
20
-9.5392282
11
117.3912807
21
-22.3791767
0
LINE
8
0
10
133.2525655
20
-11.7293107
11
131.2189175
21
-24.5692592
0
ARC
8
0
10
119.9187729
20
-9.6174455
40
0.5
50
81
51
171
0
ARC
8
0
10
132.7587213
20
-11.6510935
40
0.5
50
351
51
81
0
ARC
8
0
10
117.8851249
20
-22.4573939
40
0.5
50
171
51
261
0
ARC
8
0
10
130.7250733
20
-24.4910419
40
0.5
50
261
51
351
0
LINE
8
0
10
98.3997618
20
-24.9798275
11
111.2397103
21
-27.0134755
0
LINE
8
0
10
96.2096793
20
-38.8074643
11
109.0496278
21
-40.8411123
0
LINE
8
0
10
97.8277004
20
-25.3954544
11
95.7940524
21
-38.2354029
0
LINE
8
0
10
111.6553372
20
-27.5855369
11
109.6216892
21
-40.4254854
0
ARC
8
0
10
98.3215446
20
-25.4736717
40
0.5
50
81
51
171
0
ARC
8
0
10
111.161493
20
-27.5073197
40
0.5
50
351
51
81
0
ARC
8
0
10
96.2878966
20
-38.3136201
40
0.5
50
171
51
261
0
ARC
8
0
10
109.127845
20
-40.3472681
40
0.5
50
261
51
351
0
LINE
8
0
10
117.0169136
20
-27.9390642
11
129.8568621
21
-29.9727122
0
LINE
8
0
10
114.8268311
20
-41.766701
11
127.6667796
21
-43.800349
0
LINE
8
0
10
116.4448522
20
-28.3546911
11
114.4112042
21
-41.1946396
0
LINE
8
0
10
130.272489
20
-30.5447736
11
128.238841
21
-43.3847221
0
ARC
8
0
10
116.9386964
20
-28.4329084
40
0.5
50
81
51
171
0
ARC
8
0
10
129.7786448
20
-30.4665564
40
0.5
50
351
51
81
0
ARC
8
0
10
114.9050484
20
-41.2728568
40
0.5
50
171
51
261
0
ARC
8
0
10
127.7449968
20
-43.3065048
40
0.5
50
261
51
351
0
LINE
8
0
10
95.4196852
20
-43.7952904
11
108.2596337
21
-45.8289384
0
LINE
8
0
10
93.2296027
20
-57.6229272
11
106.0695512
21
-59.6565752
0
LINE
8
0
10
94.8476238
20
-44.2109173
11
92.8139758
21
-57.0508658
0
LINE
8
0
10
108.6752606
20
-46.4009998
11
106.6416126
21
-59.2409483
0
ARC
8
0
10
95.341468
20
-44.2891346
40
0.5
50
81
51
171
0
ARC
8
0
10
108.1814164
20
-46.3227826
40
0.5
50
351
51
81
0
ARC
8
0
10
93.30782
20
-57.129083
40
0.5
50
171
51
261
0
ARC
8
0
10
106.1477684
20
-59.162731
40
0.5
50
261
51
351
0
LINE
8
0
10
114.036837
20
-46.7545271
11
126.8767855
21
-48.7881751
0
LINE
8
0
10
111.8467545
20
-60.5821639
11
124.686703
21
-62.6158119
0
LINE
8
0
10
113.4647756
20
-47.170154
11
111.4311276
21
-60.0101025
0
LINE
8
0
10
127.2924124
20
-49.3602365
11
125.2587644
21
-62.200185
0
ARC
8
0
10
113.9586198
20
-47.2483713
40
0.5
50
81
51
171
0
ARC
8
0
10
126.7985682
20
-49.2820193
40
0.5
50
351
51
81
0
ARC
8
0
10
111.9249718
20
-60.0883197
40
0.5
50
171
51
261
0
ARC
8
0
10
124.7649202
20
-62.1219677
40
0.5
50
261
51
351
0
LINE
8
0
10
141.1653318
20
-93.7142746
11
136.5065484
21
-105.8508201
0
LINE
8
0
10
128.0952058
20
-88.6971233
11
123.4364224
21
-100.8336688
0
LINE
8
0
10
140.8777255
20
-93.0683004
11
128.74118
21
-88.409517
0
LINE
8
0
10
135.8605742
20
-106.1384264
11
123.7240287
21
-101.479643
0
ARC
8
0
10
140.6985415
20
-93.5350906
40
0.5
50
339
51
69
0
ARC
8
0
10
136.0397582
20
-105.6716361
40
0.5
50
249
51
339
0
ARC
8
0
10
128.561996
20
-88.8763073
40
0.5
50
69
51
159
0
ARC
8
0
10
123.9032127
20
-101.0128528
40
0.5
50
159
51
249
0
LINE
8
0
10
151.9398719
20
-95.2358486
11
162.4570928
21
-102.8770569
0
LINE
8
0
10
143.7108784
20
-106.5620865
11
154.2280993
21
-114.2032948
0
LINE
8
0
10
151.2414708
20
-95.3464645
11
143.6002625
21
-105.8636854
0
LINE
8
0
10
162.5677087
20
-103.575458
11
154.9265004
21
-114.0926789
0
ARC
8
0
10
151.6459793
20
-95.6403571
40
0.5
50
54
51
144
0
ARC
8
0
10
162.1632002
20
-103.2815654
40
0.5
50
324
51
54
0
ARC
8
0
10
144.004771
20
-106.157578
40
0.5
50
144
51
234
0
ARC
8
0
10
154.5219919
20
-113.7987863
40
0.5
50
234
51
324
0
LINE
8
0
10
218.5429072
20
-102.8770569
11
229.0601281
21
-95.2358486
0
LINE
8
0
10
226.7719007
20
-114.2032948
11
237.2891216
21
-106.5620865
0
LINE
8
0
10
218.4322913
20
-103.575458
11
226.0734996
21
-114.0926789
0
LINE
8
0
10
229.7585292
20
-95.3464645
11
237.3997375
21
-105.8636854
0
ARC
8
0
10
218.8367998
20
-103.2815654
40
0.5
50
126
51
216
0
ARC
8
0
10
229.3540207
20
-95.6403571
40
0.5
50
36
51
126
0
ARC
8
0
10
226.4780081
20
-113.7987863
40
0.5
50
216
51
306
0
ARC
8
0
10
236.995229
20
-106.157578
40
0.5
50
306
51
36
0
LINE
8
0
10
252.9047942
20
-88.6971233
11
257.5635776
21
-100.8336688
0
LINE
8
0
10
239.8346682
20
-93.7142746
11
244.4934516
21
-105.8508201
0
LINE
8
0
10
252.25882
20
-88.409517
11
240.1222745
21
-93.0683004
0
LINE
8
0
10
257.2759713
20
-101.479643
11
245.1394258
21
-106.1384264
0
ARC
8
0
10
252.438004
20
-88.8763073
40
0.5
50
21
51
111
0
ARC
8
0
10
257.0967873
20
-101.0128528
40
0.5
50
291
51
21
0
ARC
8
0
10
240.3014585
20
-93.5350906
40
0.5
50
111
51
201
0
ARC
8
0
10
244.9602418
20
-105.6716361
40
0.5
50
201
51
291
0
LINE
8
0
10
266.7802132
20
-8.1980126
11
279.6201617
21
-6.1643646
0
LINE
8
0
10
268.9702957
20
-22.0256494
11
281.8102442
21
-19.9920014
0
LINE
8
0
10
266.3645863
20
-8.770074
11
268.3982343
21
-21.6100225
0
LINE
8
0
10
280.1922231
20
-6.5799915
11
282.2258711
21
-19.41994
0
ARC
8
0
10
266.8584305
20
-8.6918568
40
0.5
50
99
51
189
0
ARC
8
0
10
279.6983789
20
-6.6582088
40
0.5
50
9
51
99
0
ARC
8
0
10
268.8920785
20
-21.5318052
40
0.5
50
189
51
279
0
ARC
8
0
10
281.7320269
20
-19.4981572
40
0.5
50
279
51
9
0
LINE
8
0
10
248.1630614
20
-11.1572493
11
261.0030099
21
-9.1236013
0
LINE
8
0
10
250.3531439
20
-24.9848861
11
263.1930924
21
-22.9512381
0
LINE
8
0
10
247.7474345
20
-11.7293107
11
249.7810825
21
-24.5692592
0
LINE
8
0
10
261.5750713
20
-9.5392282
11
263.6087193
21
-22.3791767
0
ARC
8
0
10
248.2412787
20
-11.6510935
40
0.5
50
99
51
189
0
ARC
8
0
10
261.0812271
20
-9.6174455
40
0.5
50
9
51
99
0
ARC
8
0
10
250.2749267
20
-24.4910419
40
0.5
50
189
51
279
0
ARC
8
0
10
263.1148751
20
-22.4573939
40
0.5
50
279
51
9
0
LINE
8
0
10
269.7602897
20
-27.0134755
11
282.6002382
21
-24.9798275
0
LINE
8
0
10
271.9503722
20
-40.8411123
11
284.7903207
21
-38.8074643
0
LINE
8
0
10
269.3446628
20
-27.5855369
11
271.3783108
21
-40.4254854
0
LINE
8
0
10
283.1722996
20
-25.3954544
11
285.2059476
21
-38.2354029
0
ARC
8
0
10
269.838507
20
-27.5073197
40
0.5
50
99
51
189
0
ARC
8
0
10
282.6784554
20
-25.4736717
40
0.5
50
9
51
99
0
ARC
8
0
10
271.872155
20
-40.3472681
40
0.5
50
189
51
279
0
ARC
8
0
10
284.7121034
20
-38.3136201
40
0.5
50
279
51
9
0
LINE
8
0
10
251.1431379
20
-29.9727122
11
263.9830864
21
-27.9390642
0
LINE
8
0
10
253.3332204
20
-43.800349
11
266.1731689
21
-41.766701
0
LINE
8
0
10
250.727511
20
-30.5447736
11
252.761159
21
-43.3847221
0
LINE
8
0
10
264.5551478
20
-28.3546911
11
266.5887958
21
-41.1946396
0
ARC
8
0
10
251.2213552
20
-30.4665564
40
0.5
50
99
51
189
0
ARC
8
0
10
264.0613036
20
-28.4329084
40
0.5
50
9
51
99
0
ARC
8
0
10
253.2550032
20
-43.3065048
40
0.5
50
189
51
279
0
ARC
8
0
10
266.0949516
20
-41.2728568
40
0.5
50
279
51
9
0
LINE
8
0
10
272.7403663
20
-45.8289384
11
285.5803148
21
-43.7952904
0
LINE
8
0
10
274.9304488
20
-59.6565752
11
287.7703973
21
-57.6229272
0
LINE
8
0
10
272.3247394
20
-46.4009998
11
274.3583874
21
-59.2409483
0
LINE
8
0
10
286.1523762
20
-44.2109173
11
288.1860242
21
-57.0508658
0
ARC
8
0
10
272.8185836
20
-46.3227826
40
0.5
50
99
51
189
0
ARC
8
0
10
285.658532
20
-44.2891346
40
0.5
50
9
51
99
0
ARC
8
0
10
274.8522316
20
-59.162731
40
0.5
50
189
51
279
0
ARC
8
0
10
287.69218
20
-57.129083
40
0.5
50
279
51
9
0
LINE
8
0
10
254.1232145
20
-48.7881751
11
266.963163
21
-46.7545271
0
LINE
8
0
10
256.313297
20
-62.6158119
11
269.1532455
21
-60.5821639
0
LINE
8
0
10
253.7075876
20
-49.3602365
11
255.7412356
21
-62.200185
0
LINE
8
0
10
267.5352244
20
-47.170154
11
269.5688724
21
-60.0101025
0
ARC
8
0
10
254.2014318
20
-49.2820193
40
0.5
50
99
51
189
0
ARC
8
0
10
267.0413802
20
-47.2483713
40
0.5
50
9
51
99
0
ARC
8
0
10
256.2350798
20
-62.1219677
40
0.5
50
189
51
279
0
ARC
8
0
10
269.0750282
20
-60.0883197
40
0.5
50
279
51
9
0
LINE
8
0
10
11.4282328
20
-30.0298785
11
24.3570175
21
-28.6710085
0
LINE
8
0
10
12.8916313
20
-43.9531851
11
25.820416
21
-42.5943151
0
LINE
8
0
10
10.9832361
20
-30.5794037
11
12.3421061
21
-43.5081884
0
LINE
8
0
10
24.9065427
20
-29.1160052
11
26.2654127
21
-42.0447899
0
ARC
8
0
10
11.4804971
20
-30.5271395
40
0.5
50
96
51
186
0
ARC
8
0
10
24.4092817
20
-29.1682695
40
0.5
50
6
51
96
0
ARC
8
0
10
12.8393671
20
-43.4559241
40
0.5
50
186
51
276
0
ARC
8
0
10
25.7681517
20
-42.0970541
40
0.5
50
276
51
6
0
LINE
8
0
10
13.4195001
20
-48.9755206
11
26.3482848
21
-47.6166506
0
LINE
8
0
10
14.8828986
20
-62.8988272
11
27.8116833
21
-61.5399572
0
LINE
8
0
10
12.9745034
20
-49.5250458
11
14.3333734
21
-62.4538305
0
LINE
8
0
10
26.89781
20
-48.0616473
11
28.25668
21
-60.990432
0
ARC
8
0
10
13.4717644
20
-49.4727816
40
0.5
50
96
51
186
0
ARC
8
0
10
26.400549
20
-48.1139116
40
0.5
50
6
51
96
0
ARC
8
0
10
14.8306344
20
-62.4015662
40
0.5
50
186
51
276
0
ARC
8
0
10
27.759419
20
-61.0426962
40
0.5
50
276
51
6
0
LINE
8
0
10
288.252591
20
0.7028952
11
301.1813757
21
2.0617652
0
LINE
8
0
10
289.7159895
20
-13.2204114
11
302.6447742
21
-11.8615414
0
LINE
8
0
10
287.8075943
20
0.15337
11
289.1664643
21
-12.7754147
0
LINE
8
0
10
301.7309009
20
1.6167685
11
303.0897709
21
-11.3120162
0
ARC
8
0
10
288.3048553
20
0.2056342
40
0.5
50
96
51
186
0
ARC
8
0
10
301.2336399
20
1.5645042
40
0.5
50
6
51
96
0
ARC
8
0
10
289.6637253
20
-12.7231504
40
0.5
50
186
51
276
0
ARC
8
0
10
302.5925099
20
-11.3642804
40
0.5
50
276
51
6
0
LINE
8
0
10
290.2438582
20
-18.2427469
11
303.1726429
21
-16.8838769
0
LINE
8
0
10
291.7072567
20
-32.1660535
11
304.6360414
21
-30.8071835
0
LINE
8
0
10
289.7988615
20
-18.7922721
11
291.1577315
21
-31.7210568
0
LINE
8
0
10
303.7221681
20
-17.3288736
11
305.0810381
21
-30.2576583
0
ARC
8
0
10
290.2961225
20
-18.7400079
40
0.5
50
96
51
186
0
ARC
8
0
10
303.2249071
20
-17.3811379
40
0.5
50
6
51
96
0
ARC
8
0
10
291.6549925
20
-31.6687925
40
0.5
50
186
51
276
0
ARC
8
0
10
304.5837771
20
-30.3099225
40
0.5
50
276
51
6
0
LINE
8
0
10
292.2351254
20
-37.188389
11
305.1639101
21
-35.829519
0
LINE
8
0
10
293.6985239
20
-51.1116956
11
306.6273086
21
-49.7528256
0
LINE
8
0
10
291.7901287
20
-37.7379142
11
293.1489987
21
-50.6666989
0
LINE
8
0
10
305.7134353
20
-36.2745157
11
307.0723053
21
-49.2033004
0
ARC
8
0
10
292.2873897
20
-37.68565
40
0.5
50
96
51
186
0
ARC
8
0
10
305.2161743
20
-36.32678
40
0.5
50
6
51
96
0
ARC
8
0
10
293.6462597
20
-50.6144346
40
0.5
50
186
51
276
0
ARC
8
0
10
306.5750443
20
-49.2555646
40
0.5
50
276
51
6
0
LINE
8
0
10
261.5318091
20
-81.556018
11
274.4605938
21
-80.197148
0
LINE
8
0
10
262.9952076
20
-95.4793246
11
275.9239923
21
-94.1204546
0
LINE
8
0
10
261.0868124
20
-82.1055432
11
262.4456824
21
-95.0343279
0
LINE
8
0
10
275.010119
20
-80.6421447
11
276.368989
21
-93.5709294
0
ARC
8
0
10
261.5840734
20
-82.053279
40
0.5
50
96
51
186
0
ARC
8
0
10
274.512858
20
-80.694409
40
0.5
50
6
51
96
0
ARC
8
0
10
262.9429434
20
-94.9820636
40
0.5
50
186
51
276
0
ARC
8
0
10
275.871728
20
-93.6231936
40
0.5
50
276
51
6
0
LINE
8
0
10
9.3340868
20
-7.6126613
11
22.3024194
21
-6.7058272
0
LINE
8
0
10
10.3106774
20
-21.578558
11
23.27901
21
-20.6717239
0
LINE
8
0
10
8.870183
20
-8.1463216
11
9.7770171
21
-21.1146542
0
LINE
8
0
10
22.8360797
20
-7.169731
11
23.7429138
21
-20.1380636
0
ARC
8
0
10
9.368965
20
-8.1114434
40
0.5
50
94
51
184
0
ARC
8
0
10
22.3372976
20
-7.2046092
40
0.5
50
4
51
94
0
ARC
8
0
10
10.2757992
20
-21.079776
40
0.5
50
184
51
274
0
ARC
8
0
10
23.2441318
20
-20.1729418
40
0.5
50
274
51
4
0
LINE
8
0
10
309.3059941
20
0.8605866
11
322.2743267
21
1.7674207
0
LINE
8
0
10
310.2825847
20
-13.1053101
11
323.2509173
21
-12.198476
0
LINE
8
0
10
308.8420903
20
0.3269263
11
309.7489244
21
-12.6414063
0
LINE
8
0
10
322.807987
20
1.3035169
11
323.7148211
21
-11.6648157
0
ARC
8
0
10
309.3408723
20
0.3618045
40
0.5
50
94
51
184
0
ARC
8
0
10
322.3092049
20
1.2686387
40
0.5
50
4
51
94
0
ARC
8
0
10
310.2477065
20
-12.6065281
40
0.5
50
184
51
274
0
ARC
8
0
10
323.2160391
20
-11.6996939
40
0.5
50
274
51
4
0
LINE
8
0
10
310.6348549
20
-18.1430085
11
323.6031875
21
-17.2361744
0
LINE
8
0
10
311.6114455
20
-32.1089052
11
324.5797781
21
-31.2020711
0
LINE
8
0
10
310.1709511
20
-18.6766688
11
311.0777852
21
-31.6450014
0
LINE
8
0
10
324.1368478
20
-17.7000782
11
325.0436819
21
-30.6684108
0
ARC
8
0
10
310.6697331
20
-18.6417906
40
0.5
50
94
51
184
0
ARC
8
0
10
323.6380657
20
-17.7349564
40
0.5
50
4
51
94
0
ARC
8
0
10
311.5765673
20
-31.6101232
40
0.5
50
184
51
274
0
ARC
8
0
10
324.5448999
20
-30.703289
40
0.5
50
274
51
4
0
LINE
8
0
10
311.9637158
20
-37.1466037
11
324.9320484
21
-36.2397696
0
LINE
8
0
10
312.9403064
20
-51.1125004
11
325.908639
21
-50.2056663
0
LINE
8
0
10
311.499812
20
-37.680264
11
312.4066461
21
-50.6485966
0
LINE
8
0
10
325.4657087
20
-36.7036734
11
326.3725428
21
-49.672006
0
ARC
8
0
10
311.998594
20
-37.6453858
40
0.5
50
94
51
184
0
ARC
8
0
10
324.9669266
20
-36.7385516
40
0.5
50
4
51
94
0
ARC
8
0
10
312.9054282
20
-50.6137184
40
0.5
50
184
51
274
0
ARC
8
0
10
325.8737608
20
-49.7068842
40
0.5
50
274
51
4
0
LINE
8
0
10
33.1929178
20
-6.2391306
11
46.1849986
21
-5.7854372
0
LINE
8
0
10
33.6815108
20
-20.2306022
11
46.6735916
21
-19.7769088
0
LINE
8
0
10
32.7106722
20
-6.7562758
11
33.1643656
21
-19.7483566
0
LINE
8
0
10
46.7021438
20
-6.2676828
11
47.1558372
21
-19.2597636
0
ARC
8
0
10
33.2103676
20
-6.7388261
40
0.5
50
92
51
182
0
ARC
8
0
10
46.2024483
20
-6.2851326
40
0.5
50
2
51
92
0
ARC
8
0
10
33.6640611
20
-19.7309068
40
0.5
50
182
51
272
0
ARC
8
0
10
46.6561418
20
-19.2772133
40
0.5
50
272
51
2
0
LINE
8
0
10
33.8577533
20
-25.2775259
11
46.8498341
21
-24.8238325
0
LINE
8
0
10
34.3463463
20
-39.2689975
11
47.3384271
21
-38.8153041
0
LINE
8
0
10
33.3755077
20
-25.7946711
11
33.8292011
21
-38.7867519
0
LINE
8
0
10
47.3669793
20
-25.3060781
11
47.8206727
21
-38.2981589
0
ARC
8
0
10
33.8752031
20
-25.7772214
40
0.5
50
92
51
182
0
ARC
8
0
10
46.8672838
20
-25.3235279
40
0.5
50
2
51
92
0
ARC
8
0
10
34.3288966
20
-38.7693021
40
0.5
50
182
51
272
0
ARC
8
0
10
47.3209773
20
-38.3156086
40
0.5
50
272
51
2
0
LINE
8
0
10
34.5225887
20
-44.3159211
11
47.5146695
21
-43.8622277
0
LINE
8
0
10
35.0111817
20
-58.3073927
11
48.0032625
21
-57.8536993
0
LINE
8
0
10
34.0403431
20
-44.8330663
11
34.4940365
21
-57.8251471
0
LINE
8
0
10
48.0318147
20
-44.3444733
11
48.4855081
21
-57.3365541
0
ARC
8
0
10
34.5400385
20
-44.8156166
40
0.5
50
92
51
182
0
ARC
8
0
10
47.5321192
20
-44.3619231
40
0.5
50
2
51
92
0
ARC
8
0
10
34.993732
20
-57.8076973
40
0.5
50
182
51
272
0
ARC
8
0
10
47.9858127
20
-57.3540038
40
0.5
50
272
51
2
0
LINE
8
0
10
6.7815484
20
-114.2445717
11
374.2184516
21
-114.2445717
0
LINE
8
0
10
6.7815484
20
3.9456769
11
374.2184516
21
3.9456769
0
LINE
8
0
10
6.7815484
20
-114.2445717
11
6.7815484
21
3.9456769
0
LINE
8
0
10
374.2184516
20
-114.2445717
11
374.2184516
21
3.9456769
0
ENDSEC
0
EOF