<svg width="376.213mm" height="126.686mm" viewBox="0 0 376.213 126.686" xmlns="http://www.w3.org/2000/svg"><g id="svgGroup" stroke-linecap="round" fill-rule="evenodd" font-size="9pt" stroke="#000" stroke-width="0.25mm" fill="none" style="stroke:#000;stroke-width:0.25mm;fill:none"><path d="M 0 126.686 L 376.213 126.686 L 376.213 0 L 0 0 L 0 126.686 Z M 321.82 4.305 L 334.434 1.16 A 0.5 0.5 0 0 1 335.04 1.525 L 338.185 14.138 A 0.5 0.5 0 0 1 337.821 14.745 L 325.207 17.89 A 0.5 0.5 0 0 1 324.601 17.525 L 321.456 4.912 A 0.5 0.5 0 0 1 321.82 4.305 Z M 302.541 8.914 L 315.155 5.769 A 0.5 0.5 0 0 1 315.761 6.133 L 318.906 18.747 A 0.5 0.5 0 0 1 318.541 19.353 L 305.928 22.498 A 0.5 0.5 0 0 1 305.321 22.134 L 302.177 9.52 A 0.5 0.5 0 0 1 302.541 8.914 Z M 307.149 27.398 L 319.763 24.253 A 0.5 0.5 0 0 1 320.369 24.617 L 323.514 37.231 A 0.5 0.5 0 0 1 323.15 37.837 L 310.536 40.982 A 0.5 0.5 0 0 1 309.93 40.618 L 306.785 28.004 A 0.5 0.5 0 0 1 307.149 27.398 Z M 311.758 45.882 L 324.372 42.737 A 0.5 0.5 0 0 1 324.978 43.102 L 328.123 55.715 A 0.5 0.5 0 0 1 327.759 56.321 L 315.145 59.466 A 0.5 0.5 0 0 1 314.539 59.102 L 311.394 46.488 A 0.5 0.5 0 0 1 311.758 45.882 Z M 326.429 22.79 L 339.042 19.645 A 0.5 0.5 0 0 1 339.649 20.009 L 342.794 32.623 A 0.5 0.5 0 0 1 342.429 33.229 L 329.815 36.374 A 0.5 0.5 0 0 1 329.209 36.01 L 326.064 23.396 A 0.5 0.5 0 0 1 326.429 22.79 Z M 331.037 41.274 L 343.651 38.129 A 0.5 0.5 0 0 1 344.257 38.493 L 347.402 51.107 A 0.5 0.5 0 0 1 347.038 51.713 L 334.424 54.858 A 0.5 0.5 0 0 1 333.818 54.494 L 330.673 41.88 A 0.5 0.5 0 0 1 331.037 41.274 Z M 25.578 38.129 L 38.192 41.274 A 0.5 0.5 0 0 1 38.556 41.88 L 35.412 54.494 A 0.5 0.5 0 0 1 34.805 54.858 L 22.192 51.713 A 0.5 0.5 0 0 1 21.827 51.107 L 24.972 38.493 A 0.5 0.5 0 0 1 25.578 38.129 Z M 34.796 1.16 L 47.41 4.305 A 0.5 0.5 0 0 1 47.774 4.912 L 44.629 17.525 A 0.5 0.5 0 0 1 44.023 17.89 L 31.409 14.745 A 0.5 0.5 0 0 1 31.045 14.138 L 34.19 1.525 A 0.5 0.5 0 0 1 34.796 1.16 Z M 30.187 19.645 L 42.801 22.79 A 0.5 0.5 0 0 1 43.165 23.396 L 40.02 36.01 A 0.5 0.5 0 0 1 39.414 36.374 L 26.8 33.229 A 0.5 0.5 0 0 1 26.436 32.623 L 29.581 20.009 A 0.5 0.5 0 0 1 30.187 19.645 Z M 54.075 5.769 L 66.689 8.914 A 0.5 0.5 0 0 1 67.053 9.52 L 63.908 22.134 A 0.5 0.5 0 0 1 63.302 22.498 L 50.688 19.353 A 0.5 0.5 0 0 1 50.324 18.747 L 53.469 6.133 A 0.5 0.5 0 0 1 54.075 5.769 Z M 49.466 24.253 L 62.08 27.398 A 0.5 0.5 0 0 1 62.444 28.004 L 59.299 40.618 A 0.5 0.5 0 0 1 58.693 40.982 L 46.079 37.837 A 0.5 0.5 0 0 1 45.715 37.231 L 48.86 24.617 A 0.5 0.5 0 0 1 49.466 24.253 Z M 44.858 42.737 L 57.472 45.882 A 0.5 0.5 0 0 1 57.836 46.488 L 54.691 59.102 A 0.5 0.5 0 0 1 54.085 59.466 L 41.471 56.321 A 0.5 0.5 0 0 1 41.107 55.715 L 44.252 43.102 A 0.5 0.5 0 0 1 44.858 42.737 Z M 348.78 18.412 L 361.582 16.154 A 0.5 0.5 0 0 1 362.161 16.56 L 364.419 29.362 A 0.5 0.5 0 0 1 364.013 29.942 L 351.211 32.199 A 0.5 0.5 0 0 1 350.632 31.794 L 348.374 18.991 A 0.5 0.5 0 0 1 348.78 18.412 Z M 352.088 37.172 L 364.89 34.915 A 0.5 0.5 0 0 1 365.469 35.321 L 367.727 48.123 A 0.5 0.5 0 0 1 367.321 48.702 L 354.519 50.96 A 0.5 0.5 0 0 1 353.94 50.554 L 351.682 37.752 A 0.5 0.5 0 0 1 352.088 37.172 Z M 7.647 16.154 L 20.45 18.412 A 0.5 0.5 0 0 1 20.855 18.991 L 18.598 31.794 A 0.5 0.5 0 0 1 18.019 32.199 L 5.216 29.942 A 0.5 0.5 0 0 1 4.811 29.362 L 7.068 16.56 A 0.5 0.5 0 0 1 7.647 16.154 Z M 4.339 34.915 L 17.142 37.172 A 0.5 0.5 0 0 1 17.547 37.752 L 15.29 50.554 A 0.5 0.5 0 0 1 14.711 50.96 L 1.908 48.702 A 0.5 0.5 0 0 1 1.503 48.123 L 3.76 35.321 A 0.5 0.5 0 0 1 4.339 34.915 Z M 247.55 99.802 L 258.693 93.106 A 0.5 0.5 0 0 1 259.379 93.277 L 266.075 104.42 A 0.5 0.5 0 0 1 265.903 105.106 L 254.76 111.802 A 0.5 0.5 0 0 1 254.074 111.631 L 247.379 100.488 A 0.5 0.5 0 0 1 247.55 99.802 Z M 110.537 93.106 L 121.68 99.802 A 0.5 0.5 0 0 1 121.851 100.488 L 115.155 111.631 A 0.5 0.5 0 0 1 114.469 111.802 L 103.326 105.106 A 0.5 0.5 0 0 1 103.155 104.42 L 109.85 93.277 A 0.5 0.5 0 0 1 110.537 93.106 Z M 337.57 76.401 L 350.444 74.592 A 0.5 0.5 0 0 1 351.008 75.017 L 352.817 87.891 A 0.5 0.5 0 0 1 352.392 88.455 L 339.518 90.265 A 0.5 0.5 0 0 1 338.954 89.839 L 337.144 76.966 A 0.5 0.5 0 0 1 337.57 76.401 Z M 359.277 81.676 L 372.15 79.867 A 0.5 0.5 0 0 1 372.715 80.292 L 374.524 93.166 A 0.5 0.5 0 0 1 374.099 93.731 L 361.225 95.54 A 0.5 0.5 0 0 1 360.66 95.114 L 358.851 82.241 A 0.5 0.5 0 0 1 359.277 81.676 Z M 356.375 62.593 L 369.248 60.783 A 0.5 0.5 0 0 1 369.813 61.209 L 371.622 74.082 A 0.5 0.5 0 0 1 371.197 74.647 L 358.323 76.456 A 0.5 0.5 0 0 1 357.759 76.031 L 355.949 63.157 A 0.5 0.5 0 0 1 356.375 62.593 Z M 318.705 79.052 L 331.579 77.243 A 0.5 0.5 0 0 1 332.144 77.668 L 333.953 90.542 A 0.5 0.5 0 0 1 333.527 91.107 L 320.654 92.916 A 0.5 0.5 0 0 1 320.089 92.49 L 318.28 79.617 A 0.5 0.5 0 0 1 318.705 79.052 Z M 142.619 112.918 L 133.268 121.949 A 0.5 0.5 0 0 1 132.561 121.936 L 123.53 112.585 A 0.5 0.5 0 0 1 123.542 111.878 L 132.894 102.847 A 0.5 0.5 0 0 1 133.601 102.86 L 142.631 112.211 A 0.5 0.5 0 0 1 142.619 112.918 Z M 236.336 102.847 L 245.687 111.878 A 0.5 0.5 0 0 1 245.699 112.585 L 236.669 121.936 A 0.5 0.5 0 0 1 235.962 121.949 L 226.61 112.918 A 0.5 0.5 0 0 1 226.598 112.211 L 235.629 102.86 A 0.5 0.5 0 0 1 236.336 102.847 Z M 92.685 16.224 L 105.182 19.807 A 0.5 0.5 0 0 1 105.525 20.426 L 101.941 32.922 A 0.5 0.5 0 0 1 101.323 33.265 L 88.827 29.682 A 0.5 0.5 0 0 1 88.484 29.063 L 92.067 16.567 A 0.5 0.5 0 0 1 92.685 16.224 Z M 88.583 85.411 L 101.08 88.994 A 0.5 0.5 0 0 1 101.422 89.613 L 97.839 102.109 A 0.5 0.5 0 0 1 97.221 102.452 L 84.724 98.869 A 0.5 0.5 0 0 1 84.382 98.25 L 87.965 85.754 A 0.5 0.5 0 0 1 88.583 85.411 Z M 74.899 9.142 L 87.395 12.725 A 0.5 0.5 0 0 1 87.738 13.344 L 84.154 25.84 A 0.5 0.5 0 0 1 83.536 26.183 L 71.04 22.6 A 0.5 0.5 0 0 1 70.697 21.981 L 74.28 9.485 A 0.5 0.5 0 0 1 74.899 9.142 Z M 69.648 27.454 L 82.144 31.037 A 0.5 0.5 0 0 1 82.487 31.656 L 78.904 44.152 A 0.5 0.5 0 0 1 78.285 44.495 L 65.789 40.912 A 0.5 0.5 0 0 1 65.446 40.293 L 69.029 27.797 A 0.5 0.5 0 0 1 69.648 27.454 Z M 87.435 34.536 L 99.931 38.119 A 0.5 0.5 0 0 1 100.274 38.738 L 96.691 51.234 A 0.5 0.5 0 0 1 96.072 51.577 L 83.576 47.994 A 0.5 0.5 0 0 1 83.233 47.375 L 86.816 34.879 A 0.5 0.5 0 0 1 87.435 34.536 Z M 64.397 45.766 L 76.893 49.349 A 0.5 0.5 0 0 1 77.236 49.968 L 73.653 62.464 A 0.5 0.5 0 0 1 73.034 62.807 L 60.538 59.224 A 0.5 0.5 0 0 1 60.195 58.605 L 63.778 46.109 A 0.5 0.5 0 0 1 64.397 45.766 Z M 82.184 52.848 L 94.68 56.431 A 0.5 0.5 0 0 1 95.023 57.05 L 91.44 69.546 A 0.5 0.5 0 0 1 90.821 69.889 L 78.325 66.306 A 0.5 0.5 0 0 1 77.982 65.687 L 81.565 53.191 A 0.5 0.5 0 0 1 82.184 52.848 Z M 268.15 88.994 L 280.646 85.411 A 0.5 0.5 0 0 1 281.265 85.754 L 284.848 98.25 A 0.5 0.5 0 0 1 284.505 98.869 L 272.009 102.452 A 0.5 0.5 0 0 1 271.39 102.109 L 267.807 89.613 A 0.5 0.5 0 0 1 268.15 88.994 Z M 234.985 71.696 L 247.481 68.113 A 0.5 0.5 0 0 1 248.1 68.455 L 251.683 80.952 A 0.5 0.5 0 0 1 251.34 81.57 L 238.844 85.153 A 0.5 0.5 0 0 1 238.225 84.811 L 234.642 72.314 A 0.5 0.5 0 0 1 234.985 71.696 Z M 99.971 59.93 L 112.467 63.513 A 0.5 0.5 0 0 1 112.81 64.132 L 109.227 76.628 A 0.5 0.5 0 0 1 108.608 76.971 L 96.112 73.388 A 0.5 0.5 0 0 1 95.769 72.769 L 99.352 60.273 A 0.5 0.5 0 0 1 99.971 59.93 Z M 264.048 19.807 L 276.544 16.224 A 0.5 0.5 0 0 1 277.162 16.567 L 280.746 29.063 A 0.5 0.5 0 0 1 280.403 29.682 L 267.907 33.265 A 0.5 0.5 0 0 1 267.288 32.922 L 263.705 20.426 A 0.5 0.5 0 0 1 264.048 19.807 Z M 246.261 26.889 L 258.757 23.306 A 0.5 0.5 0 0 1 259.375 23.649 L 262.959 36.145 A 0.5 0.5 0 0 1 262.616 36.764 L 250.12 40.347 A 0.5 0.5 0 0 1 249.501 40.004 L 245.918 27.508 A 0.5 0.5 0 0 1 246.261 26.889 Z M 287.085 31.037 L 299.582 27.454 A 0.5 0.5 0 0 1 300.2 27.797 L 303.784 40.293 A 0.5 0.5 0 0 1 303.441 40.912 L 290.944 44.495 A 0.5 0.5 0 0 1 290.326 44.152 L 286.743 31.656 A 0.5 0.5 0 0 1 287.085 31.037 Z M 269.298 38.119 L 281.795 34.536 A 0.5 0.5 0 0 1 282.413 34.879 L 285.997 47.375 A 0.5 0.5 0 0 1 285.654 47.994 L 273.157 51.577 A 0.5 0.5 0 0 1 272.539 51.234 L 268.956 38.738 A 0.5 0.5 0 0 1 269.298 38.119 Z M 251.512 45.201 L 264.008 41.618 A 0.5 0.5 0 0 1 264.626 41.961 L 268.21 54.457 A 0.5 0.5 0 0 1 267.867 55.076 L 255.37 58.659 A 0.5 0.5 0 0 1 254.752 58.316 L 251.169 45.82 A 0.5 0.5 0 0 1 251.512 45.201 Z M 274.549 56.431 L 287.046 52.848 A 0.5 0.5 0 0 1 287.664 53.191 L 291.248 65.687 A 0.5 0.5 0 0 1 290.905 66.306 L 278.408 69.889 A 0.5 0.5 0 0 1 277.79 69.546 L 274.207 57.05 A 0.5 0.5 0 0 1 274.549 56.431 Z M 121.748 68.113 L 134.245 71.696 A 0.5 0.5 0 0 1 134.588 72.314 L 131.004 84.811 A 0.5 0.5 0 0 1 130.386 85.153 L 117.889 81.57 A 0.5 0.5 0 0 1 117.547 80.952 L 121.13 68.455 A 0.5 0.5 0 0 1 121.748 68.113 Z M 292.336 49.349 L 304.833 45.766 A 0.5 0.5 0 0 1 305.451 46.109 L 309.034 58.605 A 0.5 0.5 0 0 1 308.692 59.224 L 296.195 62.807 A 0.5 0.5 0 0 1 295.577 62.464 L 291.994 49.968 A 0.5 0.5 0 0 1 292.336 49.349 Z M 256.762 63.513 L 269.259 59.93 A 0.5 0.5 0 0 1 269.877 60.273 L 273.461 72.769 A 0.5 0.5 0 0 1 273.118 73.388 L 260.621 76.971 A 0.5 0.5 0 0 1 260.003 76.628 L 256.42 64.132 A 0.5 0.5 0 0 1 256.762 63.513 Z M 110.472 23.306 L 122.969 26.889 A 0.5 0.5 0 0 1 123.312 27.508 L 119.728 40.004 A 0.5 0.5 0 0 1 119.11 40.347 L 106.614 36.764 A 0.5 0.5 0 0 1 106.271 36.145 L 109.854 23.649 A 0.5 0.5 0 0 1 110.472 23.306 Z M 281.835 12.725 L 294.331 9.142 A 0.5 0.5 0 0 1 294.949 9.485 L 298.533 21.981 A 0.5 0.5 0 0 1 298.19 22.6 L 285.693 26.183 A 0.5 0.5 0 0 1 285.075 25.84 L 281.492 13.344 A 0.5 0.5 0 0 1 281.835 12.725 Z M 105.222 41.618 L 117.718 45.201 A 0.5 0.5 0 0 1 118.061 45.82 L 114.477 58.316 A 0.5 0.5 0 0 1 113.859 58.659 L 101.363 55.076 A 0.5 0.5 0 0 1 101.02 54.457 L 104.603 41.961 A 0.5 0.5 0 0 1 105.222 41.618 Z" vector-effect="non-scaling-stroke"/></g></svg>