0
SECTION
2
HEADER
9
$INSUNITS
70
4
0
ENDSEC
0
SECTION
2
TABLES
0
TABLE
2
LTYPE
0
LTYPE
72
65
70
64
2
CONTINUOUS
3
______
73
0
40
0
0
ENDTAB
0
TABLE
2
LAYER
0
ENDTAB
0
ENDSEC
0
SECTION
2
ENTITIES
0
LINE
8
0
10
32.582539
20
6.3404045
11
45.3850398
21
4.0829782
0
LINE
8
0
10
30.1514646
20
-7.446904
11
42.9539654
21
-9.7043303
0
LINE
8
0
10
32.0033111
20
5.9348247
11
29.7458848
21
-6.8676761
0
LINE
8
0
10
45.7906196
20
3.5037503
11
43.5331933
21
-9.2987505
0
ARC
8
0
10
32.495715
20
5.8480006
40
0.5
50
80
51
170
0
ARC
8
0
10
45.2982157
20
3.5905743
40
0.5
50
350
51
80
0
ARC
8
0
10
30.2382887
20
-6.9545001
40
0.5
50
170
51
260
0
ARC
8
0
10
43.0407894
20
-9.2119264
40
0.5
50
260
51
350
0
LINE
8
0
10
29.2745412
20
-12.4201832
11
42.077042
21
-14.6776095
0
LINE
8
0
10
26.8434668
20
-26.2074917
11
39.6459676
21
-28.464918
0
LINE
8
0
10
28.6953133
20
-12.825763
11
26.437887
21
-25.6282638
0
LINE
8
0
10
42.4826218
20
-15.2568374
11
40.2251955
21
-28.0593382
0
ARC
8
0
10
29.1877172
20
-12.9125871
40
0.5
50
80
51
170
0
ARC
8
0
10
41.9902179
20
-15.1700134
40
0.5
50
350
51
80
0
ARC
8
0
10
26.9302909
20
-25.7150878
40
0.5
50
170
51
260
0
ARC
8
0
10
39.7327916
20
-27.9725141
40
0.5
50
260
51
350
0
LINE
8
0
10
59.7309326
20
21.3343408
11
72.3447771
21
18.1893562
0
LINE
8
0
10
56.3440261
20
7.7502006
11
68.9578706
21
4.605216
0
LINE
8
0
10
59.1248238
20
20.9701539
11
55.9798392
21
8.3563094
0
LINE
8
0
10
72.708964
20
17.5832474
11
69.5639794
21
4.9694029
0
ARC
8
0
10
59.6099717
20
20.8491929
40
0.5
50
76
51
166
0
ARC
8
0
10
72.2238161
20
17.7042083
40
0.5
50
346
51
76
0
ARC
8
0
10
56.4649871
20
8.2353485
40
0.5
50
166
51
256
0
ARC
8
0
10
69.0788315
20
5.0903639
40
0.5
50
256
51
346
0
LINE
8
0
10
55.1223205
20
2.8502072
11
67.736165
21
-0.2947774
0
LINE
8
0
10
51.735414
20
-10.733933
11
64.3492585
21
-13.8789176
0
LINE
8
0
10
54.5162117
20
2.4860203
11
51.3712271
21
-10.1278242
0
LINE
8
0
10
68.1003519
20
-0.9008862
11
64.9553673
21
-13.5147307
0
ARC
8
0
10
55.0013596
20
2.3650593
40
0.5
50
76
51
166
0
ARC
8
0
10
67.615204
20
-0.7799253
40
0.5
50
346
51
76
0
ARC
8
0
10
51.856375
20
-10.2487851
40
0.5
50
166
51
256
0
ARC
8
0
10
64.4702194
20
-13.3937697
40
0.5
50
256
51
346
0
LINE
8
0
10
50.5137084
20
-15.6339264
11
63.1275529
21
-18.778911
0
LINE
8
0
10
47.1268019
20
-29.2180666
11
59.7406464
21
-32.3630512
0
LINE
8
0
10
49.9075996
20
-15.9981133
11
46.762615
21
-28.6119578
0
LINE
8
0
10
63.4917398
20
-19.3850198
11
60.3467552
21
-31.9988643
0
ARC
8
0
10
50.3927475
20
-16.1190743
40
0.5
50
76
51
166
0
ARC
8
0
10
63.0065919
20
-19.2640589
40
0.5
50
346
51
76
0
ARC
8
0
10
47.2477629
20
-28.7329187
40
0.5
50
166
51
256
0
ARC
8
0
10
59.8616073
20
-31.8779033
40
0.5
50
256
51
346
0
LINE
8
0
10
79.0101993
20
16.7257267
11
91.6240438
21
13.5807421
0
LINE
8
0
10
75.6232928
20
3.1415865
11
88.2371373
21
-0.0033981
0
LINE
8
0
10
78.4040905
20
16.3615398
11
75.2591059
21
3.7476953
0
LINE
8
0
10
91.9882307
20
12.9746333
11
88.8432461
21
0.3607888
0
ARC
8
0
10
78.8892384
20
16.2405788
40
0.5
50
76
51
166
0
ARC
8
0
10
91.5030828
20
13.0955942
40
0.5
50
346
51
76
0
ARC
8
0
10
75.7442538
20
3.6267344
40
0.5
50
166
51
256
0
ARC
8
0
10
88.3580982
20
0.4817498
40
0.5
50
256
51
346
0
LINE
8
0
10
74.4015872
20
-1.7584069
11
87.0154317
21
-4.9033915
0
LINE
8
0
10
71.0146807
20
-15.3425471
11
83.6285252
21
-18.4875317
0
LINE
8
0
10
73.7954784
20
-2.1225938
11
70.6504938
21
-14.7364383
0
LINE
8
0
10
87.3796186
20
-5.5095003
11
84.234634
21
-18.1233448
0
ARC
8
0
10
74.2806263
20
-2.2435548
40
0.5
50
76
51
166
0
ARC
8
0
10
86.8944707
20
-5.3885394
40
0.5
50
346
51
76
0
ARC
8
0
10
71.1356417
20
-14.8573992
40
0.5
50
166
51
256
0
ARC
8
0
10
83.7494861
20
-18.0023838
40
0.5
50
256
51
346
0
LINE
8
0
10
69.7929751
20
-20.2425405
11
82.4068196
21
-23.3875251
0
LINE
8
0
10
66.4060686
20
-33.8266807
11
79.0199131
21
-36.9716653
0
LINE
8
0
10
69.1868663
20
-20.6067274
11
66.0418817
21
-33.2205719
0
LINE
8
0
10
82.7710065
20
-23.9936339
11
79.6260219
21
-36.6074784
0
ARC
8
0
10
69.6720142
20
-20.7276884
40
0.5
50
76
51
166
0
ARC
8
0
10
82.2858586
20
-23.872673
40
0.5
50
346
51
76
0
ARC
8
0
10
66.5270296
20
-33.3415328
40
0.5
50
166
51
256
0
ARC
8
0
10
79.140874
20
-36.4865174
40
0.5
50
256
51
346
0
LINE
8
0
10
146.6836747
20
-45.6177306
11
159.1800767
21
-49.2010162
0
LINE
8
0
10
142.8247517
20
-59.0753944
11
155.3211537
21
-62.65868
0
LINE
8
0
10
146.0652251
20
-45.9605428
11
142.4819395
21
-58.4569448
0
LINE
8
0
10
159.5228889
20
-49.8194658
11
155.9396033
21
-62.3158678
0
ARC
8
0
10
146.545856
20
-46.0983615
40
0.5
50
74
51
164
0
ARC
8
0
10
159.042258
20
-49.6816471
40
0.5
50
344
51
74
0
ARC
8
0
10
142.9625704
20
-58.5947635
40
0.5
50
164
51
254
0
ARC
8
0
10
155.4589724
20
-62.1780491
40
0.5
50
254
51
344
0
LINE
8
0
10
99.833805
20
13.3528466
11
112.330207
21
9.769561
0
LINE
8
0
10
95.974882
20
-0.1048172
11
108.471284
21
-3.6881028
0
LINE
8
0
10
99.2153554
20
13.0100344
11
95.6320698
21
0.5136324
0
LINE
8
0
10
112.6730192
20
9.1511114
11
109.0897336
21
-3.3452906
0
ARC
8
0
10
99.6959863
20
12.8722157
40
0.5
50
74
51
164
0
ARC
8
0
10
112.1923883
20
9.2889301
40
0.5
50
344
51
74
0
ARC
8
0
10
96.1127007
20
0.3758137
40
0.5
50
164
51
254
0
ARC
8
0
10
108.6091027
20
-3.2074719
40
0.5
50
254
51
344
0
LINE
8
0
10
117.6207511
20
6.2707514
11
130.1171531
21
2.6874658
0
LINE
8
0
10
113.7618281
20
-7.1869124
11
126.2582301
21
-10.770198
0
LINE
8
0
10
117.0023015
20
5.9279392
11
113.4190159
21
-6.5684628
0
LINE
8
0
10
130.4599653
20
2.0690162
11
126.8766797
21
-10.4273858
0
ARC
8
0
10
117.4829324
20
5.7901205
40
0.5
50
74
51
164
0
ARC
8
0
10
129.9793344
20
2.2068349
40
0.5
50
344
51
74
0
ARC
8
0
10
113.8996468
20
-6.7062815
40
0.5
50
164
51
254
0
ARC
8
0
10
126.3960488
20
-10.2895671
40
0.5
50
254
51
344
0
LINE
8
0
10
135.4076973
20
-0.8113438
11
147.9040993
21
-4.3946294
0
LINE
8
0
10
131.5487743
20
-14.2690076
11
144.0451763
21
-17.8522932
0
LINE
8
0
10
134.7892477
20
-1.154156
11
131.2059621
21
-13.650558
0
LINE
8
0
10
148.2469115
20
-5.013079
11
144.6636259
21
-17.509481
0
ARC
8
0
10
135.2698786
20
-1.2919747
40
0.5
50
74
51
164
0
ARC
8
0
10
147.7662806
20
-4.8752603
40
0.5
50
344
51
74
0
ARC
8
0
10
131.686593
20
-13.7883767
40
0.5
50
164
51
254
0
ARC
8
0
10
144.182995
20
-17.3716623
40
0.5
50
254
51
344
0
LINE
8
0
10
94.5829133
20
-4.9591888
11
107.0793153
21
-8.5424744
0
LINE
8
0
10
90.7239903
20
-18.4168526
11
103.2203923
21
-22.0001382
0
LINE
8
0
10
93.9644637
20
-5.302001
11
90.3811781
21
-17.798403
0
LINE
8
0
10
107.4221275
20
-9.160924
11
103.8388419
21
-21.657326
0
ARC
8
0
10
94.4450946
20
-5.4398197
40
0.5
50
74
51
164
0
ARC
8
0
10
106.9414966
20
-9.0231053
40
0.5
50
344
51
74
0
ARC
8
0
10
90.861809
20
-17.9362217
40
0.5
50
164
51
254
0
ARC
8
0
10
103.358211
20
-21.5195073
40
0.5
50
254
51
344
0
LINE
8
0
10
112.3698595
20
-12.0412839
11
124.8662615
21
-15.6245695
0
LINE
8
0
10
108.5109365
20
-25.4989477
11
121.0073385
21
-29.0822333
0
LINE
8
0
10
111.7514099
20
-12.3840961
11
108.1681243
21
-24.8804981
0
LINE
8
0
10
125.2090737
20
-16.2430191
11
121.6257881
21
-28.7394211
0
ARC
8
0
10
112.2320408
20
-12.5219148
40
0.5
50
74
51
164
0
ARC
8
0
10
124.7284428
20
-16.1052004
40
0.5
50
344
51
74
0
ARC
8
0
10
108.6487552
20
-25.0183168
40
0.5
50
164
51
254
0
ARC
8
0
10
121.1451572
20
-28.6016024
40
0.5
50
254
51
344
0
LINE
8
0
10
130.1568056
20
-19.1233791
11
142.6532076
21
-22.7066647
0
LINE
8
0
10
126.2978826
20
-32.5810429
11
138.7942846
21
-36.1643285
0
LINE
8
0
10
129.538356
20
-19.4661913
11
125.9550704
21
-31.9625933
0
LINE
8
0
10
142.9960198
20
-23.3251143
11
139.4127342
21
-35.8215163
0
ARC
8
0
10
130.0189869
20
-19.60401
40
0.5
50
74
51
164
0
ARC
8
0
10
142.5153889
20
-23.1872956
40
0.5
50
344
51
74
0
ARC
8
0
10
126.4357013
20
-32.100412
40
0.5
50
164
51
254
0
ARC
8
0
10
138.9321033
20
-35.6836976
40
0.5
50
254
51
344
0
LINE
8
0
10
89.3320217
20
-23.2712241
11
101.8284237
21
-26.8545097
0
LINE
8
0
10
85.4730987
20
-36.7288879
11
97.9695007
21
-40.3121735
0
LINE
8
0
10
88.7135721
20
-23.6140363
11
85.1302865
21
-36.1104383
0
LINE
8
0
10
102.1712359
20
-27.4729593
11
98.5879503
21
-39.9693613
0
ARC
8
0
10
89.194203
20
-23.751855
40
0.5
50
74
51
164
0
ARC
8
0
10
101.690605
20
-27.3351406
40
0.5
50
344
51
74
0
ARC
8
0
10
85.6109174
20
-36.248257
40
0.5
50
164
51
254
0
ARC
8
0
10
98.1073194
20
-39.8315426
40
0.5
50
254
51
344
0
LINE
8
0
10
107.1189679
20
-30.3533192
11
119.6153699
21
-33.9366048
0
LINE
8
0
10
103.2600449
20
-43.810983
11
115.7564469
21
-47.3942686
0
LINE
8
0
10
106.5005183
20
-30.6961314
11
102.9172327
21
-43.1925334
0
LINE
8
0
10
119.9581821
20
-34.5550544
11
116.3748965
21
-47.0514564
0
ARC
8
0
10
106.9811492
20
-30.8339501
40
0.5
50
74
51
164
0
ARC
8
0
10
119.4775512
20
-34.4172357
40
0.5
50
344
51
74
0
ARC
8
0
10
103.3978636
20
-43.3303521
40
0.5
50
164
51
254
0
ARC
8
0
10
115.8942656
20
-46.9136377
40
0.5
50
254
51
344
0
LINE
8
0
10
124.905914
20
-37.4354144
11
137.402316
21
-41.0187
0
LINE
8
0
10
121.046991
20
-50.8930782
11
133.543393
21
-54.4763638
0
LINE
8
0
10
124.2874644
20
-37.7782266
11
120.7041788
21
-50.2746286
0
LINE
8
0
10
137.7451282
20
-41.6371496
11
134.1618426
21
-54.1335516
0
ARC
8
0
10
124.7680953
20
-37.9160453
40
0.5
50
74
51
164
0
ARC
8
0
10
137.2644973
20
-41.4993309
40
0.5
50
344
51
74
0
ARC
8
0
10
121.1848097
20
-50.4124473
40
0.5
50
164
51
254
0
ARC
8
0
10
133.6812117
20
-53.9957329
40
0.5
50
254
51
344
0
LINE
8
0
10
113.5185314
20
-62.9160865
11
126.0149334
21
-66.4993721
0
LINE
8
0
10
109.6596084
20
-76.3737503
11
122.1560104
21
-79.9570359
0
LINE
8
0
10
112.9000818
20
-63.2588987
11
109.3167962
21
-75.7553007
0
LINE
8
0
10
126.3577456
20
-67.1178217
11
122.77446
21
-79.6142237
0
ARC
8
0
10
113.3807127
20
-63.3967174
40
0.5
50
74
51
164
0
ARC
8
0
10
125.8771147
20
-66.980003
40
0.5
50
344
51
74
0
ARC
8
0
10
109.7974271
20
-75.8931194
40
0.5
50
164
51
254
0
ARC
8
0
10
122.2938291
20
-79.476405
40
0.5
50
254
51
344
0
LINE
8
0
10
135.4717869
20
-70.6113296
11
146.6149618
21
-77.3068246
0
LINE
8
0
10
128.2612538
20
-82.6116718
11
139.4044287
21
-89.3071668
0
LINE
8
0
10
134.7856842
20
-70.7823942
11
128.0901892
21
-81.9255691
0
LINE
8
0
10
146.7860264
20
-77.9929273
11
140.0905314
21
-89.1361022
0
ARC
8
0
10
135.2142678
20
-71.0399133
40
0.5
50
59
51
149
0
ARC
8
0
10
146.3574427
20
-77.7354082
40
0.5
50
329
51
59
0
ARC
8
0
10
128.5187729
20
-82.1830882
40
0.5
50
149
51
239
0
ARC
8
0
10
139.6619478
20
-88.8785831
40
0.5
50
239
51
329
0
LINE
8
0
10
167.5543271
20
-90.4234561
11
158.2029097
21
-99.4540149
0
LINE
8
0
10
157.8291099
20
-80.3526989
11
148.4776925
21
-89.3832577
0
LINE
8
0
10
167.5666678
20
-89.716457
11
158.536109
21
-80.3650396
0
LINE
8
0
10
157.4959106
20
-99.4416742
11
148.4653518
21
-90.0902568
0
ARC
8
0
10
167.2069979
20
-90.0637862
40
0.5
50
314
51
44
0
ARC
8
0
10
157.8555805
20
-99.094345
40
0.5
50
224
51
314
0
ARC
8
0
10
158.1764391
20
-80.7123688
40
0.5
50
44
51
134
0
ARC
8
0
10
148.8250217
20
-89.7429276
40
0.5
50
134
51
224
0
LINE
8
0
10
261.2708901
20
-80.3526989
11
270.6223075
21
-89.3832577
0
LINE
8
0
10
251.5456729
20
-90.4234561
11
260.8970903
21
-99.4540149
0
LINE
8
0
10
260.563891
20
-80.3650396
11
251.5333322
21
-89.716457
0
LINE
8
0
10
270.6346482
20
-90.0902568
11
261.6040894
21
-99.4416742
0
ARC
8
0
10
260.9235609
20
-80.7123688
40
0.5
50
46
51
136
0
ARC
8
0
10
270.2749783
20
-89.7429276
40
0.5
50
316
51
46
0
ARC
8
0
10
251.8930021
20
-90.0637862
40
0.5
50
136
51
226
0
ARC
8
0
10
261.2444195
20
-99.094345
40
0.5
50
226
51
316
0
LINE
8
0
10
272.4850382
20
-77.3068246
11
283.6282131
21
-70.6113296
0
LINE
8
0
10
279.6955713
20
-89.3071668
11
290.8387462
21
-82.6116718
0
LINE
8
0
10
272.3139736
20
-77.9929273
11
279.0094686
21
-89.1361022
0
LINE
8
0
10
284.3143158
20
-70.7823942
11
291.0098108
21
-81.9255691
0
ARC
8
0
10
272.7425573
20
-77.7354082
40
0.5
50
121
51
211
0
ARC
8
0
10
283.8857322
20
-71.0399133
40
0.5
50
31
51
121
0
ARC
8
0
10
279.4380522
20
-88.8785831
40
0.5
50
211
51
301
0
ARC
8
0
10
290.5812271
20
-82.1830882
40
0.5
50
301
51
31
0
LINE
8
0
10
293.0850666
20
-66.4993721
11
305.5814686
21
-62.9160865
0
LINE
8
0
10
296.9439896
20
-79.9570359
11
309.4403916
21
-76.3737503
0
LINE
8
0
10
292.7422544
20
-67.1178217
11
296.32554
21
-79.6142237
0
LINE
8
0
10
306.1999182
20
-63.2588987
11
309.7832038
21
-75.7553007
0
ARC
8
0
10
293.2228853
20
-66.980003
40
0.5
50
106
51
196
0
ARC
8
0
10
305.7192873
20
-63.3967174
40
0.5
50
16
51
106
0
ARC
8
0
10
296.8061709
20
-79.476405
40
0.5
50
196
51
286
0
ARC
8
0
10
309.3025729
20
-75.8931194
40
0.5
50
286
51
16
0
LINE
8
0
10
306.769793
20
9.769561
11
319.266195
21
13.3528466
0
LINE
8
0
10
310.628716
20
-3.6881028
11
323.125118
21
-0.1048172
0
LINE
8
0
10
306.4269808
20
9.1511114
11
310.0102664
21
-3.3452906
0
LINE
8
0
10
319.8846446
20
13.0100344
11
323.4679302
21
0.5136324
0
ARC
8
0
10
306.9076117
20
9.2889301
40
0.5
50
106
51
196
0
ARC
8
0
10
319.4040137
20
12.8722157
40
0.5
50
16
51
106
0
ARC
8
0
10
310.4908973
20
-3.2074719
40
0.5
50
196
51
286
0
ARC
8
0
10
322.9872993
20
0.3758137
40
0.5
50
286
51
16
0
LINE
8
0
10
288.9828469
20
2.6874658
11
301.4792489
21
6.2707514
0
LINE
8
0
10
292.8417699
20
-10.770198
11
305.3381719
21
-7.1869124
0
LINE
8
0
10
288.6400347
20
2.0690162
11
292.2233203
21
-10.4273858
0
LINE
8
0
10
302.0976985
20
5.9279392
11
305.6809841
21
-6.5684628
0
ARC
8
0
10
289.1206656
20
2.2068349
40
0.5
50
106
51
196
0
ARC
8
0
10
301.6170676
20
5.7901205
40
0.5
50
16
51
106
0
ARC
8
0
10
292.7039512
20
-10.2895671
40
0.5
50
196
51
286
0
ARC
8
0
10
305.2003532
20
-6.7062815
40
0.5
50
286
51
16
0
LINE
8
0
10
271.1959007
20
-4.3946294
11
283.6923027
21
-0.8113438
0
LINE
8
0
10
275.0548237
20
-17.8522932
11
287.5512257
21
-14.2690076
0
LINE
8
0
10
270.8530885
20
-5.013079
11
274.4363741
21
-17.509481
0
LINE
8
0
10
284.3107523
20
-1.154156
11
287.8940379
21
-13.650558
0
ARC
8
0
10
271.3337194
20
-4.8752603
40
0.5
50
106
51
196
0
ARC
8
0
10
283.8301214
20
-1.2919747
40
0.5
50
16
51
106
0
ARC
8
0
10
274.917005
20
-17.3716623
40
0.5
50
196
51
286
0
ARC
8
0
10
287.413407
20
-13.7883767
40
0.5
50
286
51
16
0
LINE
8
0
10
312.0206847
20
-8.5424744
11
324.5170867
21
-4.9591888
0
LINE
8
0
10
315.8796077
20
-22.0001382
11
328.3760097
21
-18.4168526
0
LINE
8
0
10
311.6778725
20
-9.160924
11
315.2611581
21
-21.657326
0
LINE
8
0
10
325.1355363
20
-5.302001
11
328.7188219
21
-17.798403
0
ARC
8
0
10
312.1585034
20
-9.0231053
40
0.5
50
106
51
196
0
ARC
8
0
10
324.6549054
20
-5.4398197
40
0.5
50
16
51
106
0
ARC
8
0
10
315.741789
20
-21.5195073
40
0.5
50
196
51
286
0
ARC
8
0
10
328.238191
20
-17.9362217
40
0.5
50
286
51
16
0
LINE
8
0
10
294.2337385
20
-15.6245695
11
306.7301405
21
-12.0412839
0
LINE
8
0
10
298.0926615
20
-29.0822333
11
310.5890635
21
-25.4989477
0
LINE
8
0
10
293.8909263
20
-16.2430191
11
297.4742119
21
-28.7394211
0
LINE
8
0
10
307.3485901
20
-12.3840961
11
310.9318757
21
-24.8804981
0
ARC
8
0
10
294.3715572
20
-16.1052004
40
0.5
50
106
51
196
0
ARC
8
0
10
306.8679592
20
-12.5219148
40
0.5
50
16
51
106
0
ARC
8
0
10
297.9548428
20
-28.6016024
40
0.5
50
196
51
286
0
ARC
8
0
10
310.4512448
20
-25.0183168
40
0.5
50
286
51
16
0
LINE
8
0
10
276.4467924
20
-22.7066647
11
288.9431944
21
-19.1233791
0
LINE
8
0
10
280.3057154
20
-36.1643285
11
292.8021174
21
-32.5810429
0
LINE
8
0
10
276.1039802
20
-23.3251143
11
279.6872658
21
-35.8215163
0
LINE
8
0
10
289.561644
20
-19.4661913
11
293.1449296
21
-31.9625933
0
ARC
8
0
10
276.5846111
20
-23.1872956
40
0.5
50
106
51
196
0
ARC
8
0
10
289.0810131
20
-19.60401
40
0.5
50
16
51
106
0
ARC
8
0
10
280.1678967
20
-35.6836976
40
0.5
50
196
51
286
0
ARC
8
0
10
292.6642987
20
-32.100412
40
0.5
50
286
51
16
0
LINE
8
0
10
317.2715763
20
-26.8545097
11
329.7679783
21
-23.2712241
0
LINE
8
0
10
321.1304993
20
-40.3121735
11
333.6269013
21
-36.7288879
0
LINE
8
0
10
316.9287641
20
-27.4729593
11
320.5120497
21
-39.9693613
0
LINE
8
0
10
330.3864279
20
-23.6140363
11
333.9697135
21
-36.1104383
0
ARC
8
0
10
317.409395
20
-27.3351406
40
0.5
50
106
51
196
0
ARC
8
0
10
329.905797
20
-23.751855
40
0.5
50
16
51
106
0
ARC
8
0
10
320.9926806
20
-39.8315426
40
0.5
50
196
51
286
0
ARC
8
0
10
333.4890826
20
-36.248257
40
0.5
50
286
51
16
0
LINE
8
0
10
299.4846301
20
-33.9366048
11
311.9810321
21
-30.3533192
0
LINE
8
0
10
303.3435531
20
-47.3942686
11
315.8399551
21
-43.810983
0
LINE
8
0
10
299.1418179
20
-34.5550544
11
302.7251035
21
-47.0514564
0
LINE
8
0
10
312.5994817
20
-30.6961314
11
316.1827673
21
-43.1925334
0
ARC
8
0
10
299.6224488
20
-34.4172357
40
0.5
50
106
51
196
0
ARC
8
0
10
312.1188508
20
-30.8339501
40
0.5
50
16
51
106
0
ARC
8
0
10
303.2057344
20
-46.9136377
40
0.5
50
196
51
286
0
ARC
8
0
10
315.7021364
20
-43.3303521
40
0.5
50
286
51
16
0
LINE
8
0
10
281.697684
20
-41.0187
11
294.194086
21
-37.4354144
0
LINE
8
0
10
285.556607
20
-54.4763638
11
298.053009
21
-50.8930782
0
LINE
8
0
10
281.3548718
20
-41.6371496
11
284.9381574
21
-54.1335516
0
LINE
8
0
10
294.8125356
20
-37.7782266
11
298.3958212
21
-50.2746286
0
ARC
8
0
10
281.8355027
20
-41.4993309
40
0.5
50
106
51
196
0
ARC
8
0
10
294.3319047
20
-37.9160453
40
0.5
50
16
51
106
0
ARC
8
0
10
285.4187883
20
-53.9957329
40
0.5
50
196
51
286
0
ARC
8
0
10
297.9151903
20
-50.4124473
40
0.5
50
286
51
16
0
LINE
8
0
10
259.9199233
20
-49.2010162
11
272.4163253
21
-45.6177306
0
LINE
8
0
10
263.7788463
20
-62.65868
11
276.2752483
21
-59.0753944
0
LINE
8
0
10
259.5771111
20
-49.8194658
11
263.1603967
21
-62.3158678
0
LINE
8
0
10
273.0347749
20
-45.9605428
11
276.6180605
21
-58.4569448
0
ARC
8
0
10
260.057742
20
-49.6816471
40
0.5
50
106
51
196
0
ARC
8
0
10
272.554144
20
-46.0983615
40
0.5
50
16
51
106
0
ARC
8
0
10
263.6410276
20
-62.1780491
40
0.5
50
196
51
286
0
ARC
8
0
10
276.1374296
20
-58.5947635
40
0.5
50
286
51
16
0
LINE
8
0
10
327.4759562
20
13.5807421
11
340.0898007
21
16.7257267
0
LINE
8
0
10
330.8628627
20
-0.0033981
11
343.4767072
21
3.1415865
0
LINE
8
0
10
327.1117693
20
12.9746333
11
330.2567539
21
0.3607888
0
LINE
8
0
10
340.6959095
20
16.3615398
11
343.8408941
21
3.7476953
0
ARC
8
0
10
327.5969172
20
13.0955942
40
0.5
50
104
51
194
0
ARC
8
0
10
340.2107616
20
16.2405788
40
0.5
50
14
51
104
0
ARC
8
0
10
330.7419018
20
0.4817498
40
0.5
50
194
51
284
0
ARC
8
0
10
343.3557462
20
3.6267344
40
0.5
50
284
51
14
0
LINE
8
0
10
332.0845683
20
-4.9033915
11
344.6984128
21
-1.7584069
0
LINE
8
0
10
335.4714748
20
-18.4875317
11
348.0853193
21
-15.3425471
0
LINE
8
0
10
331.7203814
20
-5.5095003
11
334.865366
21
-18.1233448
0
LINE
8
0
10
345.3045216
20
-2.1225938
11
348.4495062
21
-14.7364383
0
ARC
8
0
10
332.2055293
20
-5.3885394
40
0.5
50
104
51
194
0
ARC
8
0
10
344.8193737
20
-2.2435548
40
0.5
50
14
51
104
0
ARC
8
0
10
335.3505139
20
-18.0023838
40
0.5
50
194
51
284
0
ARC
8
0
10
347.9643583
20
-14.8573992
40
0.5
50
284
51
14
0
LINE
8
0
10
336.6931804
20
-23.3875251
11
349.3070249
21
-20.2425405
0
LINE
8
0
10
340.0800869
20
-36.9716653
11
352.6939314
21
-33.8266807
0
LINE
8
0
10
336.3289935
20
-23.9936339
11
339.4739781
21
-36.6074784
0
LINE
8
0
10
349.9131337
20
-20.6067274
11
353.0581183
21
-33.2205719
0
ARC
8
0
10
336.8141414
20
-23.872673
40
0.5
50
104
51
194
0
ARC
8
0
10
349.4279858
20
-20.7276884
40
0.5
50
14
51
104
0
ARC
8
0
10
339.959126
20
-36.4865174
40
0.5
50
194
51
284
0
ARC
8
0
10
352.5729704
20
-33.3415328
40
0.5
50
284
51
14
0
LINE
8
0
10
346.7552229
20
18.1893562
11
359.3690674
21
21.3343408
0
LINE
8
0
10
350.1421294
20
4.605216
11
362.7559739
21
7.7502006
0
LINE
8
0
10
346.391036
20
17.5832474
11
349.5360206
21
4.9694029
0
LINE
8
0
10
359.9751762
20
20.9701539
11
363.1201608
21
8.3563094
0
ARC
8
0
10
346.8761839
20
17.7042083
40
0.5
50
104
51
194
0
ARC
8
0
10
359.4900283
20
20.8491929
40
0.5
50
14
51
104
0
ARC
8
0
10
350.0211685
20
5.0903639
40
0.5
50
194
51
284
0
ARC
8
0
10
362.6350129
20
8.2353485
40
0.5
50
284
51
14
0
LINE
8
0
10
351.363835
20
-0.2947774
11
363.9776795
21
2.8502072
0
LINE
8
0
10
354.7507415
20
-13.8789176
11
367.364586
21
-10.733933
0
LINE
8
0
10
350.9996481
20
-0.9008862
11
354.1446327
21
-13.5147307
0
LINE
8
0
10
364.5837883
20
2.4860203
11
367.7287729
21
-10.1278242
0
ARC
8
0
10
351.484796
20
-0.7799253
40
0.5
50
104
51
194
0
ARC
8
0
10
364.0986404
20
2.3650593
40
0.5
50
14
51
104
0
ARC
8
0
10
354.6297806
20
-13.3937697
40
0.5
50
194
51
284
0
ARC
8
0
10
367.243625
20
-10.2487851
40
0.5
50
284
51
14
0
LINE
8
0
10
355.9724471
20
-18.778911
11
368.5862916
21
-15.6339264
0
LINE
8
0
10
359.3593536
20
-32.3630512
11
371.9731981
21
-29.2180666
0
LINE
8
0
10
355.6082602
20
-19.3850198
11
358.7532448
21
-31.9988643
0
LINE
8
0
10
369.1924004
20
-15.9981133
11
372.337385
21
-28.6119578
0
ARC
8
0
10
356.0934081
20
-19.2640589
40
0.5
50
104
51
194
0
ARC
8
0
10
368.7072525
20
-16.1190743
40
0.5
50
14
51
104
0
ARC
8
0
10
359.2383927
20
-31.8779033
40
0.5
50
194
51
284
0
ARC
8
0
10
371.8522371
20
-28.7329187
40
0.5
50
284
51
14
0
LINE
8
0
10
373.7149602
20
4.0829782
11
386.517461
21
6.3404045
0
LINE
8
0
10
376.1460346
20
-9.7043303
11
388.9485354
21
-7.446904
0
LINE
8
0
10
373.3093804
20
3.5037503
11
375.5668067
21
-9.2987505
0
LINE
8
0
10
387.0966889
20
5.9348247
11
389.3541152
21
-6.8676761
0
ARC
8
0
10
373.8017843
20
3.5905743
40
0.5
50
100
51
190
0
ARC
8
0
10
386.604285
20
5.8480006
40
0.5
50
10
51
100
0
ARC
8
0
10
376.0592106
20
-9.2119264
40
0.5
50
190
51
280
0
ARC
8
0
10
388.8617113
20
-6.9545001
40
0.5
50
280
51
10
0
LINE
8
0
10
377.022958
20
-14.6776095
11
389.8254588
21
-12.4201832
0
LINE
8
0
10
379.4540324
20
-28.464918
11
392.2565332
21
-26.2074917
0
LINE
8
0
10
376.6173782
20
-15.2568374
11
378.8748045
21
-28.0593382
0
LINE
8
0
10
390.4046867
20
-12.825763
11
392.662113
21
-25.6282638
0
ARC
8
0
10
377.1097821
20
-15.1700134
40
0.5
50
100
51
190
0
ARC
8
0
10
389.9122828
20
-12.9125871
40
0.5
50
10
51
100
0
ARC
8
0
10
379.3672084
20
-27.9725141
40
0.5
50
190
51
280
0
ARC
8
0
10
392.1697091
20
-25.7150878
40
0.5
50
280
51
10
0
LINE
8
0
10
381.3101304
20
-40.0977705
11
394.1836153
21
-38.2885202
0
LINE
8
0
10
383.2585539
20
-53.9615234
11
396.1320388
21
-52.1522731
0
LINE
8
0
10
380.884583
20
-40.6624911
11
382.6938333
21
-53.535976
0
LINE
8
0
10
394.7483359
20
-38.7140676
11
396.5575862
21
-51.5875525
0
ARC
8
0
10
381.379717
20
-40.5929045
40
0.5
50
98
51
188
0
ARC
8
0
10
394.2532019
20
-38.7836542
40
0.5
50
8
51
98
0
ARC
8
0
10
383.1889673
20
-53.4663894
40
0.5
50
188
51
278
0
ARC
8
0
10
396.0624522
20
-51.6571391
40
0.5
50
278
51
8
0
LINE
8
0
10
343.6406643
20
-56.5573216
11
356.5141492
21
-54.7480713
0
LINE
8
0
10
345.5890878
20
-70.4210745
11
358.4625727
21
-68.6118242
0
LINE
8
0
10
343.2151169
20
-57.1220422
11
345.0243672
21
-69.9955271
0
LINE
8
0
10
357.0788698
20
-55.1736187
11
358.8881201
21
-68.0471036
0
ARC
8
0
10
343.7102509
20
-57.0524556
40
0.5
50
98
51
188
0
ARC
8
0
10
356.5837358
20
-55.2432053
40
0.5
50
8
51
98
0
ARC
8
0
10
345.5195012
20
-69.9259405
40
0.5
50
188
51
278
0
ARC
8
0
10
358.3929861
20
-68.1166902
40
0.5
50
278
51
8
0
LINE
8
0
10
362.505271
20
-53.906074
11
375.3787559
21
-52.0968237
0
LINE
8
0
10
364.4536945
20
-67.7698269
11
377.3271794
21
-65.9605766
0
LINE
8
0
10
362.0797236
20
-54.4707946
11
363.8889739
21
-67.3442795
0
LINE
8
0
10
375.9434765
20
-52.5223711
11
377.7527268
21
-65.395856
0
ARC
8
0
10
362.5748576
20
-54.401208
40
0.5
50
98
51
188
0
ARC
8
0
10
375.4483425
20
-52.5919577
40
0.5
50
8
51
98
0
ARC
8
0
10
364.3841079
20
-67.2746929
40
0.5
50
188
51
278
0
ARC
8
0
10
377.2575928
20
-65.4654426
40
0.5
50
278
51
8
0
LINE
8
0
10
384.212042
20
-59.1814069
11
397.0855269
21
-57.3721566
0
LINE
8
0
10
386.1604655
20
-73.0451598
11
399.0339504
21
-71.2359095
0
LINE
8
0
10
383.7864946
20
-59.7461275
11
385.5957449
21
-72.6196124
0
LINE
8
0
10
397.6502475
20
-57.797704
11
399.4594978
21
-70.6711889
0
ARC
8
0
10
384.2816286
20
-59.6765409
40
0.5
50
98
51
188
0
ARC
8
0
10
397.1551135
20
-57.8672906
40
0.5
50
8
51
98
0
ARC
8
0
10
386.0908789
20
-72.5500258
40
0.5
50
188
51
278
0
ARC
8
0
10
398.9643638
20
-70.7407755
40
0.5
50
278
51
8
0
LINE
8
0
10
24.9352544
20
-104.1908569
11
401.1479962
21
-104.1908569
0
LINE
8
0
10
24.9352544
20
22.4947784
11
401.1479962
21
22.4947784
0
LINE
8
0
10
24.9352544
20
-104.1908569
11
24.9352544
21
22.4947784
0
LINE
8
0
10
401.1479962
20
-104.1908569
11
401.1479962
21
22.4947784
0
ENDSEC
0
EOF