0
SECTION
2
HEADER
9
$INSUNITS
70
4
0
ENDSEC
0
SECTION
2
TABLES
0
TABLE
2
LTYPE
0
LTYPE
72
65
70
64
2
CONTINUOUS
3
______
73
0
40
0
0
ENDTAB
0
TABLE
2
LAYER
0
ENDTAB
0
ENDSEC
0
SECTION
2
ENTITIES
0
LINE
8
0
10
296.7625853
20
-4.3681743
11
310.7540569
21
-4.8567673
0
LINE
8
0
10
296.2739923
20
-18.3596459
11
310.2654639
21
-18.8482389
0
LINE
8
0
10
296.7625853
20
-4.3681743
11
296.2739923
21
-18.3596459
0
LINE
8
0
10
310.7540569
20
-4.8567673
11
310.2654639
21
-18.8482389
0
LINE
8
0
10
313.7522294
20
-4.9614657
11
327.743701
21
-5.4500587
0
LINE
8
0
10
313.2636364
20
-18.9529373
11
327.255108
21
-19.4415303
0
LINE
8
0
10
313.7522294
20
-4.9614657
11
313.2636364
21
-18.9529373
0
LINE
8
0
10
327.743701
20
-5.4500587
11
327.255108
21
-19.4415303
0
LINE
8
0
10
296.1692939
20
-21.3578183
11
310.1607655
21
-21.8464113
0
LINE
8
0
10
295.6807009
20
-35.3492899
11
309.6721725
21
-35.8378829
0
LINE
8
0
10
296.1692939
20
-21.3578183
11
295.6807009
21
-35.3492899
0
LINE
8
0
10
310.1607655
20
-21.8464113
11
309.6721725
21
-35.8378829
0
LINE
8
0
10
313.158938
20
-21.9511098
11
327.1504096
21
-22.4397028
0
LINE
8
0
10
312.670345
20
-35.9425814
11
326.6618166
21
-36.4311744
0
LINE
8
0
10
313.158938
20
-21.9511098
11
312.670345
21
-35.9425814
0
LINE
8
0
10
327.1504096
20
-22.4397028
11
326.6618166
21
-36.4311744
0
LINE
8
0
10
295.5760025
20
-38.3474624
11
309.5674741
21
-38.8360554
0
LINE
8
0
10
295.0874095
20
-52.338934
11
309.0788811
21
-52.827527
0
LINE
8
0
10
295.5760025
20
-38.3474624
11
295.0874095
21
-52.338934
0
LINE
8
0
10
309.5674741
20
-38.8360554
11
309.0788811
21
-52.827527
0
LINE
8
0
10
312.5656465
20
-38.9407538
11
326.5571181
21
-39.4293468
0
LINE
8
0
10
312.0770535
20
-52.9322254
11
326.0685251
21
-53.4208184
0
LINE
8
0
10
312.5656465
20
-38.9407538
11
312.0770535
21
-52.9322254
0
LINE
8
0
10
326.5571181
20
-39.4293468
11
326.0685251
21
-53.4208184
0
LINE
8
0
10
47.8621057
20
2.4123429
11
61.8280024
21
1.4357522
0
LINE
8
0
10
46.885515
20
-11.5535538
11
60.8514117
21
-12.5301445
0
LINE
8
0
10
47.8621057
20
2.4123429
11
46.885515
21
-11.5535538
0
LINE
8
0
10
61.8280024
20
1.4357522
11
60.8514117
21
-12.5301445
0
LINE
8
0
10
46.6762456
20
-14.5462459
11
60.6421423
21
-15.5228366
0
LINE
8
0
10
45.6996549
20
-28.5121426
11
59.6655516
21
-29.4887333
0
LINE
8
0
10
46.6762456
20
-14.5462459
11
45.6996549
21
-28.5121426
0
LINE
8
0
10
60.6421423
20
-15.5228366
11
59.6655516
21
-29.4887333
0
LINE
8
0
10
45.4903856
20
-31.5048348
11
59.4562823
21
-32.4814255
0
LINE
8
0
10
44.5137949
20
-45.4707315
11
58.4796916
21
-46.4473222
0
LINE
8
0
10
45.4903856
20
-31.5048348
11
44.5137949
21
-45.4707315
0
LINE
8
0
10
59.4562823
20
-32.4814255
11
58.4796916
21
-46.4473222
0
LINE
8
0
10
66.7150537
20
2.714429
11
80.6383602
21
1.2510305
0
LINE
8
0
10
65.2516552
20
-11.2088775
11
79.1749617
21
-12.672276
0
LINE
8
0
10
66.7150537
20
2.714429
11
65.2516552
21
-11.2088775
0
LINE
8
0
10
80.6383602
20
1.2510305
11
79.1749617
21
-12.672276
0
LINE
8
0
10
64.9380698
20
-14.1924432
11
78.8613763
21
-15.6558417
0
LINE
8
0
10
63.4746713
20
-28.1157497
11
77.3979778
21
-29.5791482
0
LINE
8
0
10
64.9380698
20
-14.1924432
11
63.4746713
21
-28.1157497
0
LINE
8
0
10
78.8613763
20
-15.6558417
11
77.3979778
21
-29.5791482
0
LINE
8
0
10
63.1610859
20
-31.0993155
11
77.0843924
21
-32.562714
0
LINE
8
0
10
61.6976874
20
-45.022622
11
75.6209939
21
-46.4860205
0
LINE
8
0
10
63.1610859
20
-31.0993155
11
61.6976874
21
-45.022622
0
LINE
8
0
10
77.0843924
20
-32.562714
11
75.6209939
21
-46.4860205
0
LINE
8
0
10
86.0033286
20
-4.5693619
11
99.8309653
21
-6.7594444
0
LINE
8
0
10
83.8132461
20
-18.3969986
11
97.6408828
21
-20.5870811
0
LINE
8
0
10
86.0033286
20
-4.5693619
11
83.8132461
21
-18.3969986
0
LINE
8
0
10
99.8309653
20
-6.7594444
11
97.6408828
21
-20.5870811
0
LINE
8
0
10
83.3439427
20
-21.3600637
11
97.1715794
21
-23.5501462
0
LINE
8
0
10
81.1538602
20
-35.1877004
11
94.9814969
21
-37.3777829
0
LINE
8
0
10
83.3439427
20
-21.3600637
11
81.1538602
21
-35.1877004
0
LINE
8
0
10
97.1715794
20
-23.5501462
11
94.9814969
21
-37.3777829
0
LINE
8
0
10
80.6845567
20
-38.1507655
11
94.5121934
21
-40.340848
0
LINE
8
0
10
78.4944742
20
-51.9784022
11
92.3221109
21
-54.1684847
0
LINE
8
0
10
80.6845567
20
-38.1507655
11
78.4944742
21
-51.9784022
0
LINE
8
0
10
94.5121934
20
-40.340848
11
92.3221109
21
-54.1684847
0
LINE
8
0
10
102.6170598
20
-11.4601505
11
116.4446965
21
-13.650233
0
LINE
8
0
10
100.4269773
20
-25.2877872
11
114.254614
21
-27.4778697
0
LINE
8
0
10
102.6170598
20
-11.4601505
11
100.4269773
21
-25.2877872
0
LINE
8
0
10
116.4446965
20
-13.650233
11
114.254614
21
-27.4778697
0
LINE
8
0
10
99.9576739
20
-28.2508523
11
113.7853106
21
-30.4409348
0
LINE
8
0
10
97.7675914
20
-42.078489
11
111.5952281
21
-44.2685715
0
LINE
8
0
10
99.9576739
20
-28.2508523
11
97.7675914
21
-42.078489
0
LINE
8
0
10
113.7853106
20
-30.4409348
11
111.5952281
21
-44.2685715
0
LINE
8
0
10
97.298288
20
-45.0415541
11
111.1259247
21
-47.2316366
0
LINE
8
0
10
95.1082055
20
-58.8691908
11
108.9358422
21
-61.0592733
0
LINE
8
0
10
97.298288
20
-45.0415541
11
95.1082055
21
-58.8691908
0
LINE
8
0
10
111.1259247
20
-47.2316366
11
108.9358422
21
-61.0592733
0
LINE
8
0
10
83.6382436
20
-76.2013558
11
97.33231
21
-79.1121194
0
LINE
8
0
10
80.72748
20
-89.8954222
11
94.4215464
21
-92.8061858
0
LINE
8
0
10
83.6382436
20
-76.2013558
11
80.72748
21
-89.8954222
0
LINE
8
0
10
97.33231
20
-79.1121194
11
94.4215464
21
-92.8061858
0
LINE
8
0
10
118.4021504
20
-82.2250927
11
112.7078374
21
-95.0147291
0
LINE
8
0
10
105.612514
20
-76.5307797
11
99.918201
21
-89.3204161
0
LINE
8
0
10
118.4021504
20
-82.2250927
11
105.612514
21
-76.5307797
0
LINE
8
0
10
112.7078374
20
-95.0147291
11
99.918201
21
-89.3204161
0
LINE
8
0
10
122.3117586
20
-89.6229208
11
133.6379965
21
-97.8519143
0
LINE
8
0
10
114.0827651
20
-100.9491587
11
125.409003
21
-109.1781522
0
LINE
8
0
10
122.3117586
20
-89.6229208
11
114.0827651
21
-100.9491587
0
LINE
8
0
10
133.6379965
20
-97.8519143
11
125.409003
21
-109.1781522
0
LINE
8
0
10
202.9620035
20
-97.8519143
11
214.2882414
21
-89.6229208
0
LINE
8
0
10
211.190997
20
-109.1781522
11
222.5172349
21
-100.9491587
0
LINE
8
0
10
202.9620035
20
-97.8519143
11
211.190997
21
-109.1781522
0
LINE
8
0
10
214.2882414
20
-89.6229208
11
222.5172349
21
-100.9491587
0
LINE
8
0
10
230.987486
20
-76.5307797
11
236.681799
21
-89.3204161
0
LINE
8
0
10
218.1978496
20
-82.2250927
11
223.8921626
21
-95.0147291
0
LINE
8
0
10
230.987486
20
-76.5307797
11
218.1978496
21
-82.2250927
0
LINE
8
0
10
236.681799
20
-89.3204161
11
223.8921626
21
-95.0147291
0
LINE
8
0
10
239.26769
20
-79.1121194
11
252.9617564
21
-76.2013558
0
LINE
8
0
10
242.1784536
20
-92.8061858
11
255.87252
21
-89.8954222
0
LINE
8
0
10
239.26769
20
-79.1121194
11
242.1784536
21
-92.8061858
0
LINE
8
0
10
252.9617564
20
-76.2013558
11
255.87252
21
-89.8954222
0
LINE
8
0
10
236.7690347
20
-6.7594444
11
250.5966714
21
-4.5693619
0
LINE
8
0
10
238.9591172
20
-20.5870811
11
252.7867539
21
-18.3969986
0
LINE
8
0
10
236.7690347
20
-6.7594444
11
238.9591172
21
-20.5870811
0
LINE
8
0
10
250.5966714
20
-4.5693619
11
252.7867539
21
-18.3969986
0
LINE
8
0
10
239.4284206
20
-23.5501462
11
253.2560573
21
-21.3600637
0
LINE
8
0
10
241.6185031
20
-37.3777829
11
255.4461398
21
-35.1877004
0
LINE
8
0
10
239.4284206
20
-23.5501462
11
241.6185031
21
-37.3777829
0
LINE
8
0
10
253.2560573
20
-21.3600637
11
255.4461398
21
-35.1877004
0
LINE
8
0
10
242.0878066
20
-40.340848
11
255.9154433
21
-38.1507655
0
LINE
8
0
10
244.2778891
20
-54.1684847
11
258.1055258
21
-51.9784022
0
LINE
8
0
10
242.0878066
20
-40.340848
11
244.2778891
21
-54.1684847
0
LINE
8
0
10
255.9154433
20
-38.1507655
11
258.1055258
21
-51.9784022
0
LINE
8
0
10
220.1553035
20
-13.650233
11
233.9829402
21
-11.4601505
0
LINE
8
0
10
222.345386
20
-27.4778697
11
236.1730227
21
-25.2877872
0
LINE
8
0
10
220.1553035
20
-13.650233
11
222.345386
21
-27.4778697
0
LINE
8
0
10
233.9829402
20
-11.4601505
11
236.1730227
21
-25.2877872
0
LINE
8
0
10
222.8146894
20
-30.4409348
11
236.6423261
21
-28.2508523
0
LINE
8
0
10
225.0047719
20
-44.2685715
11
238.8324086
21
-42.078489
0
LINE
8
0
10
222.8146894
20
-30.4409348
11
225.0047719
21
-44.2685715
0
LINE
8
0
10
236.6423261
20
-28.2508523
11
238.8324086
21
-42.078489
0
LINE
8
0
10
225.4740753
20
-47.2316366
11
239.301712
21
-45.0415541
0
LINE
8
0
10
227.6641578
20
-61.0592733
11
241.4917945
21
-58.8691908
0
LINE
8
0
10
225.4740753
20
-47.2316366
11
227.6641578
21
-61.0592733
0
LINE
8
0
10
239.301712
20
-45.0415541
11
241.4917945
21
-58.8691908
0
LINE
8
0
10
255.9616398
20
1.2510305
11
269.8849463
21
2.714429
0
LINE
8
0
10
257.4250383
20
-12.672276
11
271.3483448
21
-11.2088775
0
LINE
8
0
10
255.9616398
20
1.2510305
11
257.4250383
21
-12.672276
0
LINE
8
0
10
269.8849463
20
2.714429
11
271.3483448
21
-11.2088775
0
LINE
8
0
10
257.7386237
20
-15.6558417
11
271.6619302
21
-14.1924432
0
LINE
8
0
10
259.2020222
20
-29.5791482
11
273.1253287
21
-28.1157497
0
LINE
8
0
10
257.7386237
20
-15.6558417
11
259.2020222
21
-29.5791482
0
LINE
8
0
10
271.6619302
20
-14.1924432
11
273.1253287
21
-28.1157497
0
LINE
8
0
10
259.5156076
20
-32.562714
11
273.4389141
21
-31.0993155
0
LINE
8
0
10
260.9790061
20
-46.4860205
11
274.9023126
21
-45.022622
0
LINE
8
0
10
259.5156076
20
-32.562714
11
260.9790061
21
-46.4860205
0
LINE
8
0
10
273.4389141
20
-31.0993155
11
274.9023126
21
-45.022622
0
LINE
8
0
10
274.7719976
20
1.4357522
11
288.7378943
21
2.4123429
0
LINE
8
0
10
275.7485883
20
-12.5301445
11
289.714485
21
-11.5535538
0
LINE
8
0
10
274.7719976
20
1.4357522
11
275.7485883
21
-12.5301445
0
LINE
8
0
10
288.7378943
20
2.4123429
11
289.714485
21
-11.5535538
0
LINE
8
0
10
275.9578577
20
-15.5228366
11
289.9237544
21
-14.5462459
0
LINE
8
0
10
276.9344484
20
-29.4887333
11
290.9003451
21
-28.5121426
0
LINE
8
0
10
275.9578577
20
-15.5228366
11
276.9344484
21
-29.4887333
0
LINE
8
0
10
289.9237544
20
-14.5462459
11
290.9003451
21
-28.5121426
0
LINE
8
0
10
277.1437177
20
-32.4814255
11
291.1096144
21
-31.5048348
0
LINE
8
0
10
278.1203084
20
-46.4473222
11
292.0862051
21
-45.4707315
0
LINE
8
0
10
277.1437177
20
-32.4814255
11
278.1203084
21
-46.4473222
0
LINE
8
0
10
291.1096144
20
-31.5048348
11
292.0862051
21
-45.4707315
0
LINE
8
0
10
8.856299
20
-5.4500587
11
22.8477706
21
-4.9614657
0
LINE
8
0
10
9.344892
20
-19.4415303
11
23.3363636
21
-18.9529373
0
LINE
8
0
10
8.856299
20
-5.4500587
11
9.344892
21
-19.4415303
0
LINE
8
0
10
22.8477706
20
-4.9614657
11
23.3363636
21
-18.9529373
0
LINE
8
0
10
25.8459431
20
-4.8567673
11
39.8374147
21
-4.3681743
0
LINE
8
0
10
26.3345361
20
-18.8482389
11
40.3260077
21
-18.3596459
0
LINE
8
0
10
25.8459431
20
-4.8567673
11
26.3345361
21
-18.8482389
0
LINE
8
0
10
39.8374147
20
-4.3681743
11
40.3260077
21
-18.3596459
0
LINE
8
0
10
9.4495904
20
-22.4397028
11
23.441062
21
-21.9511098
0
LINE
8
0
10
9.9381834
20
-36.4311744
11
23.929655
21
-35.9425814
0
LINE
8
0
10
9.4495904
20
-22.4397028
11
9.9381834
21
-36.4311744
0
LINE
8
0
10
23.441062
20
-21.9511098
11
23.929655
21
-35.9425814
0
LINE
8
0
10
26.4392345
20
-21.8464113
11
40.4307061
21
-21.3578183
0
LINE
8
0
10
26.9278275
20
-35.8378829
11
40.9192991
21
-35.3492899
0
LINE
8
0
10
26.4392345
20
-21.8464113
11
26.9278275
21
-35.8378829
0
LINE
8
0
10
40.4307061
20
-21.3578183
11
40.9192991
21
-35.3492899
0
LINE
8
0
10
10.0428819
20
-39.4293468
11
24.0343535
21
-38.9407538
0
LINE
8
0
10
10.5314749
20
-53.4208184
11
24.5229465
21
-52.9322254
0
LINE
8
0
10
10.0428819
20
-39.4293468
11
10.5314749
21
-53.4208184
0
LINE
8
0
10
24.0343535
20
-38.9407538
11
24.5229465
21
-52.9322254
0
LINE
8
0
10
27.0325259
20
-38.8360554
11
41.0239975
21
-38.3474624
0
LINE
8
0
10
27.5211189
20
-52.827527
11
41.5125905
21
-52.338934
0
LINE
8
0
10
27.0325259
20
-38.8360554
11
27.5211189
21
-52.827527
0
LINE
8
0
10
41.0239975
20
-38.3474624
11
41.5125905
21
-52.338934
0
LINE
8
0
10
7.5963313
20
-107.9005365
11
329.0036687
21
-107.9005365
0
LINE
8
0
10
7.5963313
20
3.5210765
11
329.0036687
21
3.5210765
0
LINE
8
0
10
7.5963313
20
-107.9005365
11
7.5963313
21
3.5210765
0
LINE
8
0
10
329.0036687
20
-107.9005365
11
329.0036687
21
3.5210765
0
ENDSEC
0
EOF