0
SECTION
2
HEADER
9
$INSUNITS
70
4
0
ENDSEC
0
SECTION
2
TABLES
0
TABLE
2
LTYPE
0
LTYPE
72
65
70
64
2
CONTINUOUS
3
______
73
0
40
0
0
ENDTAB
0
TABLE
2
LAYER
0
ENDTAB
0
ENDSEC
0
SECTION
2
ENTITIES
0
LINE
8
0
10
314.6163515
20
-5.05101
11
328.6078231
21
-5.539603
0
LINE
8
0
10
314.1277585
20
-19.0424816
11
328.1192301
21
-19.5310746
0
LINE
8
0
10
314.6163515
20
-5.05101
11
314.1277585
21
-19.0424816
0
LINE
8
0
10
328.6078231
20
-5.539603
11
328.1192301
21
-19.5310746
0
LINE
8
0
10
332.6053864
20
-5.6792009
11
346.596858
21
-6.1677939
0
LINE
8
0
10
332.1167934
20
-19.6706725
11
346.108265
21
-20.1592655
0
LINE
8
0
10
332.6053864
20
-5.6792009
11
332.1167934
21
-19.6706725
0
LINE
8
0
10
346.596858
20
-6.1677939
11
346.108265
21
-20.1592655
0
LINE
8
0
10
313.9881606
20
-23.0400448
11
327.9796322
21
-23.5286378
0
LINE
8
0
10
313.4995676
20
-37.0315164
11
327.4910392
21
-37.5201094
0
LINE
8
0
10
313.9881606
20
-23.0400448
11
313.4995676
21
-37.0315164
0
LINE
8
0
10
327.9796322
20
-23.5286378
11
327.4910392
21
-37.5201094
0
LINE
8
0
10
331.9771954
20
-23.6682358
11
345.968667
21
-24.1568288
0
LINE
8
0
10
331.4886024
20
-37.6597074
11
345.480074
21
-38.1483004
0
LINE
8
0
10
331.9771954
20
-23.6682358
11
331.4886024
21
-37.6597074
0
LINE
8
0
10
345.968667
20
-24.1568288
11
345.480074
21
-38.1483004
0
LINE
8
0
10
313.3599696
20
-41.0290797
11
327.3514412
21
-41.5176727
0
LINE
8
0
10
312.8713766
20
-55.0205513
11
326.8628482
21
-55.5091443
0
LINE
8
0
10
313.3599696
20
-41.0290797
11
312.8713766
21
-55.0205513
0
LINE
8
0
10
327.3514412
20
-41.5176727
11
326.8628482
21
-55.5091443
0
LINE
8
0
10
331.3490045
20
-41.6572707
11
345.3404761
21
-42.1458637
0
LINE
8
0
10
330.8604115
20
-55.6487423
11
344.8518831
21
-56.1373353
0
LINE
8
0
10
331.3490045
20
-41.6572707
11
330.8604115
21
-55.6487423
0
LINE
8
0
10
345.3404761
20
-42.1458637
11
344.8518831
21
-56.1373353
0
LINE
8
0
10
51.0595621
20
2.1147605
11
65.0254588
21
1.1381698
0
LINE
8
0
10
50.0829714
20
-11.8511362
11
64.0488681
21
-12.8277269
0
LINE
8
0
10
51.0595621
20
2.1147605
11
50.0829714
21
-11.8511362
0
LINE
8
0
10
65.0254588
20
1.1381698
11
64.0488681
21
-12.8277269
0
LINE
8
0
10
49.8039455
20
-15.8413924
11
63.7698422
21
-16.8179831
0
LINE
8
0
10
48.8273548
20
-29.8072891
11
62.7932515
21
-30.7838798
0
LINE
8
0
10
49.8039455
20
-15.8413924
11
48.8273548
21
-29.8072891
0
LINE
8
0
10
63.7698422
20
-16.8179831
11
62.7932515
21
-30.7838798
0
LINE
8
0
10
48.548329
20
-33.7975453
11
62.5142257
21
-34.774136
0
LINE
8
0
10
47.5717383
20
-47.763442
11
61.537635
21
-48.7400327
0
LINE
8
0
10
48.548329
20
-33.7975453
11
47.5717383
21
-47.763442
0
LINE
8
0
10
62.5142257
20
-34.774136
11
61.537635
21
-48.7400327
0
LINE
8
0
10
71.0059365
20
2.4215511
11
84.929243
21
0.9581526
0
LINE
8
0
10
69.542538
20
-11.5017554
11
83.4658445
21
-12.9651539
0
LINE
8
0
10
71.0059365
20
2.4215511
11
69.542538
21
-11.5017554
0
LINE
8
0
10
84.929243
20
0.9581526
11
83.4658445
21
-12.9651539
0
LINE
8
0
10
69.1244241
20
-15.479843
11
83.0477306
21
-16.9432415
0
LINE
8
0
10
67.6610256
20
-29.4031495
11
81.5843321
21
-30.866548
0
LINE
8
0
10
69.1244241
20
-15.479843
11
67.6610256
21
-29.4031495
0
LINE
8
0
10
83.0477306
20
-16.9432415
11
81.5843321
21
-30.866548
0
LINE
8
0
10
67.2429118
20
-33.3812371
11
81.1662183
21
-34.8446356
0
LINE
8
0
10
65.7795133
20
-47.3045436
11
79.7028198
21
-48.7679421
0
LINE
8
0
10
67.2429118
20
-33.3812371
11
65.7795133
21
-47.3045436
0
LINE
8
0
10
81.1662183
20
-34.8446356
11
79.7028198
21
-48.7679421
0
LINE
8
0
10
91.4046289
20
-5.3092573
11
105.2322656
21
-7.4993398
0
LINE
8
0
10
89.2145464
20
-19.136894
11
103.0421831
21
-21.3269765
0
LINE
8
0
10
91.4046289
20
-5.3092573
11
89.2145464
21
-19.136894
0
LINE
8
0
10
105.2322656
20
-7.4993398
11
103.0421831
21
-21.3269765
0
LINE
8
0
10
88.5888085
20
-23.0876474
11
102.4164452
21
-25.2777299
0
LINE
8
0
10
86.398726
20
-36.9152841
11
100.2263627
21
-39.1053666
0
LINE
8
0
10
88.5888085
20
-23.0876474
11
86.398726
21
-36.9152841
0
LINE
8
0
10
102.4164452
20
-25.2777299
11
100.2263627
21
-39.1053666
0
LINE
8
0
10
85.7729882
20
-40.8660375
11
99.6006249
21
-43.05612
0
LINE
8
0
10
83.5829057
20
-54.6936742
11
97.4105424
21
-56.8837567
0
LINE
8
0
10
85.7729882
20
-40.8660375
11
83.5829057
21
-54.6936742
0
LINE
8
0
10
99.6006249
20
-43.05612
11
97.4105424
21
-56.8837567
0
LINE
8
0
10
108.9956384
20
-12.6053864
11
122.8232751
21
-14.7954689
0
LINE
8
0
10
106.8055559
20
-26.4330231
11
120.6331926
21
-28.6231056
0
LINE
8
0
10
108.9956384
20
-12.6053864
11
106.8055559
21
-26.4330231
0
LINE
8
0
10
122.8232751
20
-14.7954689
11
120.6331926
21
-28.6231056
0
LINE
8
0
10
106.1798181
20
-30.3837765
11
120.0074548
21
-32.573859
0
LINE
8
0
10
103.9897356
20
-44.2114132
11
117.8173723
21
-46.4014957
0
LINE
8
0
10
106.1798181
20
-30.3837765
11
103.9897356
21
-44.2114132
0
LINE
8
0
10
120.0074548
20
-32.573859
11
117.8173723
21
-46.4014957
0
LINE
8
0
10
103.3639977
20
-48.1621667
11
117.1916344
21
-50.3522492
0
LINE
8
0
10
101.1739152
20
-61.9898034
11
115.0015519
21
-64.1798859
0
LINE
8
0
10
103.3639977
20
-48.1621667
11
101.1739152
21
-61.9898034
0
LINE
8
0
10
117.1916344
20
-50.3522492
11
115.0015519
21
-64.1798859
0
LINE
8
0
10
88.8752962
20
-81.1721658
11
102.5693626
21
-84.0829294
0
LINE
8
0
10
85.9645326
20
-94.8662322
11
99.658599
21
-97.7769958
0
LINE
8
0
10
88.8752962
20
-81.1721658
11
85.9645326
21
-94.8662322
0
LINE
8
0
10
102.5693626
20
-84.0829294
11
99.658599
21
-97.7769958
0
LINE
8
0
10
124.8233372
20
-87.2705489
11
119.1290242
21
-100.0601853
0
LINE
8
0
10
112.0337008
20
-81.5762359
11
106.3393878
21
-94.3658723
0
LINE
8
0
10
124.8233372
20
-87.2705489
11
112.0337008
21
-81.5762359
0
LINE
8
0
10
119.1290242
20
-100.0601853
11
106.3393878
21
-94.3658723
0
LINE
8
0
10
129.5976634
20
-95.4700111
11
140.9239013
21
-103.6990046
0
LINE
8
0
10
121.3686699
20
-106.796249
11
132.6949078
21
-115.0252425
0
LINE
8
0
10
129.5976634
20
-95.4700111
11
121.3686699
21
-106.796249
0
LINE
8
0
10
140.9239013
20
-103.6990046
11
132.6949078
21
-115.0252425
0
LINE
8
0
10
215.4760987
20
-103.6990046
11
226.8023366
21
-95.4700111
0
LINE
8
0
10
223.7050922
20
-115.0252425
11
235.0313301
21
-106.796249
0
LINE
8
0
10
215.4760987
20
-103.6990046
11
223.7050922
21
-115.0252425
0
LINE
8
0
10
226.8023366
20
-95.4700111
11
235.0313301
21
-106.796249
0
LINE
8
0
10
244.3662992
20
-81.5762359
11
250.0606122
21
-94.3658723
0
LINE
8
0
10
231.5766628
20
-87.2705489
11
237.2709758
21
-100.0601853
0
LINE
8
0
10
244.3662992
20
-81.5762359
11
231.5766628
21
-87.2705489
0
LINE
8
0
10
250.0606122
20
-94.3658723
11
237.2709758
21
-100.0601853
0
LINE
8
0
10
253.8306374
20
-84.0829294
11
267.5247038
21
-81.1721658
0
LINE
8
0
10
256.741401
20
-97.7769958
11
270.4354674
21
-94.8662322
0
LINE
8
0
10
253.8306374
20
-84.0829294
11
256.741401
21
-97.7769958
0
LINE
8
0
10
267.5247038
20
-81.1721658
11
270.4354674
21
-94.8662322
0
LINE
8
0
10
251.1677344
20
-7.4993398
11
264.9953711
21
-5.3092573
0
LINE
8
0
10
253.3578169
20
-21.3269765
11
267.1854536
21
-19.136894
0
LINE
8
0
10
251.1677344
20
-7.4993398
11
253.3578169
21
-21.3269765
0
LINE
8
0
10
264.9953711
20
-5.3092573
11
267.1854536
21
-19.136894
0
LINE
8
0
10
253.9835548
20
-25.2777299
11
267.8111915
21
-23.0876474
0
LINE
8
0
10
256.1736373
20
-39.1053666
11
270.001274
21
-36.9152841
0
LINE
8
0
10
253.9835548
20
-25.2777299
11
256.1736373
21
-39.1053666
0
LINE
8
0
10
267.8111915
20
-23.0876474
11
270.001274
21
-36.9152841
0
LINE
8
0
10
256.7993751
20
-43.05612
11
270.6270118
21
-40.8660375
0
LINE
8
0
10
258.9894576
20
-56.8837567
11
272.8170943
21
-54.6936742
0
LINE
8
0
10
256.7993751
20
-43.05612
11
258.9894576
21
-56.8837567
0
LINE
8
0
10
270.6270118
20
-40.8660375
11
272.8170943
21
-54.6936742
0
LINE
8
0
10
233.5767249
20
-14.7954689
11
247.4043616
21
-12.6053864
0
LINE
8
0
10
235.7668074
20
-28.6231056
11
249.5944441
21
-26.4330231
0
LINE
8
0
10
233.5767249
20
-14.7954689
11
235.7668074
21
-28.6231056
0
LINE
8
0
10
247.4043616
20
-12.6053864
11
249.5944441
21
-26.4330231
0
LINE
8
0
10
236.3925452
20
-32.573859
11
250.2201819
21
-30.3837765
0
LINE
8
0
10
238.5826277
20
-46.4014957
11
252.4102644
21
-44.2114132
0
LINE
8
0
10
236.3925452
20
-32.573859
11
238.5826277
21
-46.4014957
0
LINE
8
0
10
250.2201819
20
-30.3837765
11
252.4102644
21
-44.2114132
0
LINE
8
0
10
239.2083656
20
-50.3522492
11
253.0360023
21
-48.1621667
0
LINE
8
0
10
241.3984481
20
-64.1798859
11
255.2260848
21
-61.9898034
0
LINE
8
0
10
239.2083656
20
-50.3522492
11
241.3984481
21
-64.1798859
0
LINE
8
0
10
253.0360023
20
-48.1621667
11
255.2260848
21
-61.9898034
0
LINE
8
0
10
271.470757
20
0.9581526
11
285.3940635
21
2.4215511
0
LINE
8
0
10
272.9341555
20
-12.9651539
11
286.857462
21
-11.5017554
0
LINE
8
0
10
271.470757
20
0.9581526
11
272.9341555
21
-12.9651539
0
LINE
8
0
10
285.3940635
20
2.4215511
11
286.857462
21
-11.5017554
0
LINE
8
0
10
273.3522694
20
-16.9432415
11
287.2755759
21
-15.479843
0
LINE
8
0
10
274.8156679
20
-30.866548
11
288.7389744
21
-29.4031495
0
LINE
8
0
10
273.3522694
20
-16.9432415
11
274.8156679
21
-30.866548
0
LINE
8
0
10
287.2755759
20
-15.479843
11
288.7389744
21
-29.4031495
0
LINE
8
0
10
275.2337817
20
-34.8446356
11
289.1570882
21
-33.3812371
0
LINE
8
0
10
276.6971802
20
-48.7679421
11
290.6204867
21
-47.3045436
0
LINE
8
0
10
275.2337817
20
-34.8446356
11
276.6971802
21
-48.7679421
0
LINE
8
0
10
289.1570882
20
-33.3812371
11
290.6204867
21
-47.3045436
0
LINE
8
0
10
291.3745412
20
1.1381698
11
305.3404379
21
2.1147605
0
LINE
8
0
10
292.3511319
20
-12.8277269
11
306.3170286
21
-11.8511362
0
LINE
8
0
10
291.3745412
20
1.1381698
11
292.3511319
21
-12.8277269
0
LINE
8
0
10
305.3404379
20
2.1147605
11
306.3170286
21
-11.8511362
0
LINE
8
0
10
292.6301578
20
-16.8179831
11
306.5960545
21
-15.8413924
0
LINE
8
0
10
293.6067485
20
-30.7838798
11
307.5726452
21
-29.8072891
0
LINE
8
0
10
292.6301578
20
-16.8179831
11
293.6067485
21
-30.7838798
0
LINE
8
0
10
306.5960545
20
-15.8413924
11
307.5726452
21
-29.8072891
0
LINE
8
0
10
293.8857743
20
-34.774136
11
307.851671
21
-33.7975453
0
LINE
8
0
10
294.862365
20
-48.7400327
11
308.8282617
21
-47.763442
0
LINE
8
0
10
293.8857743
20
-34.774136
11
294.862365
21
-48.7400327
0
LINE
8
0
10
307.851671
20
-33.7975453
11
308.8282617
21
-47.763442
0
LINE
8
0
10
9.803142
20
-6.1677939
11
23.7946136
21
-5.6792009
0
LINE
8
0
10
10.291735
20
-20.1592655
11
24.2832066
21
-19.6706725
0
LINE
8
0
10
9.803142
20
-6.1677939
11
10.291735
21
-20.1592655
0
LINE
8
0
10
23.7946136
20
-5.6792009
11
24.2832066
21
-19.6706725
0
LINE
8
0
10
27.7921769
20
-5.539603
11
41.7836485
21
-5.05101
0
LINE
8
0
10
28.2807699
20
-19.5310746
11
42.2722415
21
-19.0424816
0
LINE
8
0
10
27.7921769
20
-5.539603
11
28.2807699
21
-19.5310746
0
LINE
8
0
10
41.7836485
20
-5.05101
11
42.2722415
21
-19.0424816
0
LINE
8
0
10
10.431333
20
-24.1568288
11
24.4228046
21
-23.6682358
0
LINE
8
0
10
10.919926
20
-38.1483004
11
24.9113976
21
-37.6597074
0
LINE
8
0
10
10.431333
20
-24.1568288
11
10.919926
21
-38.1483004
0
LINE
8
0
10
24.4228046
20
-23.6682358
11
24.9113976
21
-37.6597074
0
LINE
8
0
10
28.4203678
20
-23.5286378
11
42.4118394
21
-23.0400448
0
LINE
8
0
10
28.9089608
20
-37.5201094
11
42.9004324
21
-37.0315164
0
LINE
8
0
10
28.4203678
20
-23.5286378
11
28.9089608
21
-37.5201094
0
LINE
8
0
10
42.4118394
20
-23.0400448
11
42.9004324
21
-37.0315164
0
LINE
8
0
10
11.0595239
20
-42.1458637
11
25.0509955
21
-41.6572707
0
LINE
8
0
10
11.5481169
20
-56.1373353
11
25.5395885
21
-55.6487423
0
LINE
8
0
10
11.0595239
20
-42.1458637
11
11.5481169
21
-56.1373353
0
LINE
8
0
10
25.0509955
20
-41.6572707
11
25.5395885
21
-55.6487423
0
LINE
8
0
10
29.0485588
20
-41.5176727
11
43.0400304
21
-41.0290797
0
LINE
8
0
10
29.5371518
20
-55.5091443
11
43.5286234
21
-55.0205513
0
LINE
8
0
10
29.0485588
20
-41.5176727
11
29.5371518
21
-55.5091443
0
LINE
8
0
10
43.0400304
20
-41.0290797
11
43.5286234
21
-55.0205513
0
LINE
8
0
10
8.0431743
20
-114.2476268
11
348.3568257
21
-114.2476268
0
LINE
8
0
10
8.0431743
20
3.7281986
11
348.3568257
21
3.7281986
0
LINE
8
0
10
8.0431743
20
-114.2476268
11
8.0431743
21
3.7281986
0
LINE
8
0
10
348.3568257
20
-114.2476268
11
348.3568257
21
3.7281986
0
ENDSEC
0
EOF